                                                                        S      1
,,,12HAxis-GearN72,22HAutodesk Inventor 2022,7Hunknown,32,38,7,99,15,,  G      1
1.,2,2HMM,1,0.08,15H20220601.181354,0.01,10000.,5Hmabel,,11,0,15H2022060G      2
1.000000;                                                               G      3
     186       1                                                00000000D      1
     186            -159       1       0                               0D      2
     514       2                                                00010000D      3
     514                       2       1                               0D      4
     510       4                                                00010000D      5
     510            -161       1       1                               0D      6
     510       5                                                00010000D      7
     510            -161       1       1                               0D      8
     510       6                                                00010000D      9
     510            -159       1       1                               0D     10
     510       7                                                00010000D     11
     510            -159       1       1                               0D     12
     510       8                                                00010000D     13
     510            -159       1       1                               0D     14
     510       9                                                00010000D     15
     510            -159       1       1                               0D     16
     510      10                                                00010000D     17
     510            -159       1       1                               0D     18
     510      11                                                00010000D     19
     510            -159       1       1                               0D     20
     510      12                                                00010000D     21
     510            -159       1       1                               0D     22
     510      13                                                00010000D     23
     510            -159       1       1                               0D     24
     510      14                                                00010000D     25
     510            -159       1       1                               0D     26
     510      15                                                00010000D     27
     510            -159       1       1                               0D     28
     510      16                                                00010000D     29
     510            -159       1       1                               0D     30
     510      17                                                00010000D     31
     510            -159       1       1                               0D     32
     508      18                                                00010000D     33
     508                       1       1                               0D     34
     508      19                                                00010000D     35
     508                       1       1                               0D     36
     508      20                                                00010000D     37
     508                       1       1                               0D     38
     508      21                                                00010000D     39
     508                       1       1                               0D     40
     508      22                                                00010000D     41
     508                       1       1                               0D     42
     508      23                                                00010000D     43
     508                       1       1                               0D     44
     508      24                                                00010000D     45
     508                       1       1                               0D     46
     508      25                                                00010000D     47
     508                       1       1                               0D     48
     508      26                                                00010000D     49
     508                       2       1                               0D     50
     508      28                                                00010000D     51
     508                       2       1                               0D     52
     508      30                                                00010000D     53
     508                       1       1                               0D     54
     508      31                                                00010000D     55
     508                       1       1                               0D     56
     508      32                                                00010000D     57
     508                       1       1                               0D     58
     508      33                                                00010000D     59
     508                       1       1                               0D     60
     508      34                                                00010000D     61
     508                       1       1                               0D     62
     508      35                                                00010000D     63
     508                       1       1                               0D     64
     508      36                                                00010000D     65
     508                       1       1                               0D     66
     508      37                                                00010000D     67
     508                       1       1                               0D     68
     508      38                                                00010000D     69
     508                       1       1                               0D     70
     508      39                                                00010000D     71
     508                       1       1                               0D     72
     508      40                                                00010000D     73
     508                       1       1                               0D     74
     126      41                                                00010000D     75
     126       0               5       0                               0D     76
     126      46                                                00010000D     77
     126       0              12       0                               0D     78
     126      58                                                00010000D     79
     126       0              12       0                               0D     80
     126      70                                                00010000D     81
     126       0              12       0                               0D     82
     126      82                                                00010000D     83
     126       0              12       0                               0D     84
     126      94                                                00010000D     85
     126       0              12       0                               0D     86
     126     106                                                00010000D     87
     126       0               7       0                               0D     88
     126     113                                                00010000D     89
     126       0               7       0                               0D     90
     126     120                                                00010000D     91
     126       0              10       0                               0D     92
     126     130                                                00010000D     93
     126       0               7       0                               0D     94
     126     137                                                00010000D     95
     126       0               7       0                               0D     96
     126     144                                                00010000D     97
     126       0               2       0                               0D     98
     126     146                                                00010000D     99
     126       0              13       0                               0D    100
     126     159                                                00010000D    101
     126       0               6       0                               0D    102
     126     165                                                00010000D    103
     126       0               2       0                               0D    104
     126     167                                                00010000D    105
     126       0              10       0                               0D    106
     126     177                                                00010000D    107
     126       0               2       0                               0D    108
     126     179                                                00010000D    109
     126       0              12       0                               0D    110
     126     191                                                00010000D    111
     126       0              12       0                               0D    112
     126     203                                                00010000D    113
     126       0              12       0                               0D    114
     126     215                                                00010000D    115
     126       0              12       0                               0D    116
     126     227                                                00010000D    117
     126       0               3       0                               0D    118
     126     230                                                00010000D    119
     126       0               3       0                               0D    120
     126     233                                                00010000D    121
     126       0               3       0                               0D    122
     126     236                                                00010000D    123
     126       0               3       0                               0D    124
     128     239                                                00010000D    125
     128       0    -161       7       0                               0D    126
     128     246                                                00010000D    127
     128       0    -161       4       0                               0D    128
     128     250                                                00010000D    129
     128       0    -159      12       0                               0D    130
     128     262                                                00010000D    131
     128       0    -159      12       0                               0D    132
     128     274                                                00010000D    133
     128       0    -159       3       0                               0D    134
     128     277                                                00010000D    135
     128       0    -159      11       0                               0D    136
     128     288                                                00010000D    137
     128       0    -159       7       0                               0D    138
     128     295                                                00010000D    139
     128       0    -159       7       0                               0D    140
     128     302                                                00010000D    141
     128       0    -159       7       0                               0D    142
     128     309                                                00010000D    143
     128       0    -159       7       0                               0D    144
     128     316                                                00010000D    145
     128       0    -159      20       0                               0D    146
     128     336                                                00010000D    147
     128       0    -159      20       0                               0D    148
     128     356                                                00010000D    149
     128       0    -159      20       0                               0D    150
     128     376                                                00010000D    151
     128       0    -159      20       0                               0D    152
     502     396                                                00010000D    153
     502                      10       1                               0D    154
     504     406                                                00010001D    155
     504                       7       1                               0D    156
     406     413                                                00000000D    157
     406                       1      15                               0D    158
     314     414                                                00000200D    159
     314                       1       0                               0D    160
     314     415                                                00000200D    161
     314                       1       0                               0D    162
186,3,1,0,0,1,157;                                                     1P      1
514,14,5,1,7,1,9,1,11,1,13,1,15,1,17,1,19,1,21,1,23,1,25,1,27,1,       3P      2
29,1,31,1;                                                             3P      3
510,125,6,1,33,35,37,39,41,43;                                         5P      4
510,127,2,1,45,47;                                                     7P      5
510,129,1,1,49;                                                        9P      6
510,131,1,1,51;                                                       11P      7
510,133,2,1,53,55;                                                    13P      8
510,135,1,1,57;                                                       15P      9
510,137,1,1,59;                                                       17P     10
510,139,1,1,61;                                                       19P     11
510,141,1,1,63;                                                       21P     12
510,143,1,1,65;                                                       23P     13
510,145,1,1,67;                                                       25P     14
510,147,1,1,69;                                                       27P     15
510,149,1,1,71;                                                       29P     16
510,151,1,1,73;                                                       31P     17
508,2,0,155,1,1,0,0,155,2,1,0;                                        33P     18
508,1,0,155,3,0,0;                                                    35P     19
508,1,0,155,4,0,0;                                                    37P     20
508,1,0,155,5,0,0;                                                    39P     21
508,1,0,155,6,0,0;                                                    41P     22
508,2,0,155,7,1,0,0,155,8,1,0;                                        43P     23
508,1,0,155,9,0,0;                                                    45P     24
508,2,0,155,10,0,0,0,155,11,0,0;                                      47P     25
508,6,0,155,1,0,0,0,155,2,0,0,0,155,12,1,0,0,155,13,0,0,0,155,        49P     26
14,0,0,0,155,12,0,0;                                                  49P     27
508,6,0,155,10,1,0,0,155,15,1,0,0,155,7,0,0,0,155,8,0,0,0,155,        51P     28
15,0,0,0,155,11,1,0;                                                  51P     29
508,1,0,155,16,1,0;                                                   53P     30
508,2,0,155,13,1,0,0,155,14,1,0;                                      55P     31
508,4,0,155,16,0,0,0,155,17,1,0,0,155,9,1,0,0,155,17,0,0;             57P     32
508,1,0,155,18,1,0;                                                   59P     33
508,1,0,155,19,1,0;                                                   61P     34
508,1,0,155,20,1,0;                                                   63P     35
508,1,0,155,21,1,0;                                                   65P     36
508,4,0,155,21,0,0,0,155,22,1,0,0,155,3,1,0,0,155,22,0,0;             67P     37
508,4,0,155,20,0,0,0,155,23,1,0,0,155,4,1,0,0,155,23,0,0;             69P     38
508,4,0,155,19,0,0,0,155,24,1,0,0,155,5,1,0,0,155,24,0,0;             71P     39
508,4,0,155,18,0,0,0,155,25,1,0,0,155,6,1,0,0,155,25,0,0;             73P     40
126,2,2,0,0,0,0,-1.32043109461789,-1.32043109461789,                  75P     41
-1.32043109461789,0.125184122757781,0.125184122757781,                75P     42
0.125184122757781,1.,0.749951474324442,1.,0.948893650389355,          75P     43
13.5,7.54053054103296,7.6,13.5,6.70356123908974,7.6,13.5,0.,          75P     44
-1.32043109461789,0.125184122757781,0.,0.,0.;                         75P     45
126,8,2,0,0,0,0,0.125184122757781,0.125184122757781,                  77P     46
0.125184122757781,1.33457664520876,1.33457664520876,                  77P     47
2.54396916765974,2.54396916765974,3.75336169011072,                   77P     48
3.75336169011072,4.9627542125617,4.9627542125617,                     77P     49
4.9627542125617,1.,0.822674814784867,1.,0.822674814784867,1.,         77P     50
0.822674814784867,1.,0.822674814784868,1.,7.6,13.5,0.,7.6,13.5,       77P     51
-5.25200580670486,2.68726653339599,13.5,-7.10905046954162,            77P     52
-2.22546693320802,13.5,-8.96609513237838,-5.69963120486576,13.5,      77P     53
-5.02734563447954,-9.17379547652351,13.5,-1.08859613658069,           77P     54
-6.7179055306421,13.5,3.5538352918176,-4.2620155847607,13.5,          77P     55
8.19626672021588,0.948893650389357,13.5,7.54053054103296,             77P     56
0.125184122757781,4.9627542125617,0.,0.,0.;                           77P     57
126,8,2,0,1,0,0,-3.14159265358979,-3.14159265358979,                  79P     58
-3.14159265358979,-1.5707963267949,-1.5707963267949,0.,0.,            79P     59
1.5707963267949,1.5707963267949,3.14159265358979,                     79P     60
3.14159265358979,3.14159265358979,1.,0.707106781186549,1.,            79P     61
0.707106781186548,1.,0.707106781186548,1.,0.707106781186549,1.,       79P     62
5.32021271231967,13.5,2.92297464309078,5.32021271231967,13.5,         79P     63
2.17297464309078,4.57021271231967,13.5,2.17297464309078,              79P     64
3.82021271231967,13.5,2.17297464309078,3.82021271231967,13.5,         79P     65
2.92297464309078,3.82021271231967,13.5,3.67297464309078,              79P     66
4.57021271231967,13.5,3.67297464309078,5.32021271231967,13.5,         79P     67
3.67297464309078,5.32021271231967,13.5,2.92297464309078,              79P     68
-3.14159265358979,3.14159265358979,0.,0.,0.;                          79P     69
126,8,2,0,1,0,0,-3.14159265358979,-3.14159265358979,                  81P     70
-3.14159265358979,-1.5707963267949,-1.5707963267949,0.,0.,            81P     71
1.5707963267949,1.5707963267949,3.14159265358979,                     81P     72
3.14159265358979,3.14159265358979,1.,0.707106781186548,1.,            81P     73
0.70710678118655,1.,0.70710678118655,1.,0.707106781186548,1.,         81P     74
-3.82021271231967,13.5,-2.92297464309078,-3.82021271231967,13.5,      81P     75
-3.67297464309078,-4.57021271231967,13.5,-3.67297464309078,           81P     76
-5.32021271231967,13.5,-3.67297464309078,-5.32021271231967,13.5,      81P     77
-2.92297464309078,-5.32021271231967,13.5,-2.17297464309078,           81P     78
-4.57021271231967,13.5,-2.17297464309078,-3.82021271231967,13.5,      81P     79
-2.17297464309078,-3.82021271231967,13.5,-2.92297464309078,           81P     80
-3.14159265358979,3.14159265358979,0.,0.,0.;                          81P     81
126,8,2,0,1,0,0,-3.14159265358979,-3.14159265358979,                  83P     82
-3.14159265358979,-1.5707963267949,-1.5707963267949,0.,0.,            83P     83
1.5707963267949,1.5707963267949,3.14159265358979,                     83P     84
3.14159265358979,3.14159265358979,1.,0.70710678118655,1.,             83P     85
0.70710678118655,1.,0.707106781186548,1.,0.707106781186548,1.,        83P     86
3.67297464309078,13.5,-4.57021271231967,3.67297464309078,13.5,        83P     87
-5.32021271231967,2.92297464309078,13.5,-5.32021271231967,            83P     88
2.17297464309078,13.5,-5.32021271231967,2.17297464309078,13.5,        83P     89
-4.57021271231967,2.17297464309078,13.5,-3.82021271231967,            83P     90
2.92297464309078,13.5,-3.82021271231967,3.67297464309078,13.5,        83P     91
-3.82021271231967,3.67297464309078,13.5,-4.57021271231967,            83P     92
-3.14159265358979,3.14159265358979,0.,0.,0.;                          83P     93
126,8,2,0,1,0,0,-3.14159265358979,-3.14159265358979,                  85P     94
-3.14159265358979,-1.5707963267949,-1.5707963267949,0.,0.,            85P     95
1.5707963267949,1.5707963267949,3.14159265358979,                     85P     96
3.14159265358979,3.14159265358979,1.,0.707106781186548,1.,            85P     97
0.707106781186548,1.,0.70710678118655,1.,0.70710678118655,1.,         85P     98
-2.17297464309078,13.5,4.57021271231967,-2.17297464309078,13.5,       85P     99
3.82021271231967,-2.92297464309078,13.5,3.82021271231967,             85P    100
-3.67297464309078,13.5,3.82021271231967,-3.67297464309078,13.5,       85P    101
4.57021271231967,-3.67297464309078,13.5,5.32021271231967,             85P    102
-2.92297464309078,13.5,5.32021271231967,-2.17297464309078,13.5,       85P    103
5.32021271231967,-2.17297464309078,13.5,4.57021271231967,             85P    104
-3.14159265358979,3.14159265358979,0.,0.,0.;                          85P    105
126,4,2,0,0,0,0,6.12323399573257D-17,6.12323399573257D-17,            87P    106
6.12323399573257D-17,1.5707963267949,1.5707963267949,                 87P    107
3.14159265358979,3.14159265358979,3.14159265358979,1.,                87P    108
0.707106781186548,1.,0.707106781186547,1.,-3.25,13.5,                 87P    109
-5.97015314584331D-16,-3.25,13.5,-3.25,1.99005104861577D-16,          87P    110
13.5,-3.25,3.25,13.5,-3.25,3.25,13.5,1.3225746114096D-28,             87P    111
6.12323399573257D-17,3.14159265358979,0.,0.,0.;                       87P    112
126,4,2,0,0,0,0,3.14159265358979,3.14159265358979,                    89P    113
3.14159265358979,4.71238898038469,4.71238898038469,                   89P    114
6.28318530717959,6.28318530717959,6.28318530717959,1.,                89P    115
0.707106781186548,1.,0.707106781186548,1.,3.25,13.5,                  89P    116
1.3225746114096D-28,3.25,13.5,3.25,1.99005104861313D-16,13.5,         89P    117
3.25,-3.25,13.5,3.25,-3.25,13.5,3.98010209722758D-16,                 89P    118
3.14159265358979,6.28318530717959,0.,0.,0.;                           89P    119
126,8,2,0,1,0,0,-3.14159265358979,-3.14159265358979,                  91P    120
-3.14159265358979,-1.5707963267949,-1.5707963267949,0.,0.,            91P    121
1.5707963267949,1.5707963267949,3.14159265358979,                     91P    122
3.14159265358979,3.14159265358979,1.,0.707106781186548,1.,            91P    123
0.707106781186548,1.,0.707106781186548,1.,0.707106781186547,1.,       91P    124
10.,0.,1.22464679910989D-15,10.,0.,-10.,1.83697019868356D-15,0.,      91P    125
-10.,-10.,0.,-10.,-10.,0.,-2.44929359825724D-15,-10.,0.,10.,          91P    126
-3.06161699783092D-15,0.,10.,10.,0.,10.,10.,0.,                       91P    127
3.67394039740459D-15,-3.14159265358979,3.14159265358979,0.,0.,        91P    128
0.;                                                                   91P    129
126,4,2,0,0,0,0,1.22464679913657D-16,1.22464679913657D-16,            93P    130
1.22464679913657D-16,1.5707963267949,1.5707963267949,                 93P    131
3.14159265358979,3.14159265358979,3.14159265358979,1.,                93P    132
0.707106781186547,1.,0.707106781186548,1.,-3.25,0.,                   93P    133
-3.98010209719387D-16,-3.25,0.,-3.25,-1.99005104861445D-16,0.,        93P    134
-3.25,3.25,0.,-3.25,3.25,0.,-3.9801020972289D-16,                     93P    135
1.22464679913657D-16,3.14159265358979,0.,0.,0.;                       93P    136
126,4,2,0,0,0,0,3.14159265358979,3.14159265358979,                    95P    137
3.14159265358979,4.71238898038469,4.71238898038469,                   95P    138
6.28318530717959,6.28318530717959,6.28318530717959,1.,                95P    139
0.707106781186548,1.,0.707106781186547,1.,3.25,0.,                    95P    140
-3.9801020972289D-16,3.25,0.,3.25,5.97015314584335D-16,0.,3.25,       95P    141
-3.25,0.,3.25,-3.25,0.,7.9602041944578D-16,3.14159265358979,          95P    142
6.28318530717959,0.,0.,0.;                                            95P    143
126,1,1,0,0,1,0,0.,0.,1.18421052631579,1.18421052631579,1.,1.,        97P    144
7.6,13.5,0.,7.6,4.5,0.,0.,1.18421052631579,0.,0.,0.;                  97P    145
126,8,2,0,0,0,0,-8.40932432952746D-16,-8.40932432952746D-16,          99P    146
-8.40932432952746D-16,1.20939252245098,1.20939252245098,              99P    147
2.41878504490196,2.41878504490196,3.62817756735294,                   99P    148
3.62817756735294,4.83757008980391,4.83757008980391,                   99P    149
4.83757008980391,1.,0.822674814784868,1.,0.822674814784866,1.,        99P    150
0.822674814784866,1.,0.822674814784867,1.,0.948893650389363,4.5,      99P    151
7.54053054103295,-4.26201558476069,4.5,8.19626672021589,              99P    152
-6.7179055306421,4.5,3.5538352918176,-9.17379547652351,4.5,           99P    153
-1.08859613658069,-5.69963120486577,4.5,-5.02734563447953,            99P    154
-2.22546693320803,4.5,-8.96609513237838,2.68726653339598,4.5,         99P    155
-7.10905046954162,7.59999999999999,4.5,-5.25200580670487,7.6,         99P    156
4.5,-6.10622663543836D-15,-8.40932432952746D-16,                      99P    157
4.83757008980391,0.,0.,0.;                                            99P    158
126,2,2,0,0,0,0,4.83757008980391,4.83757008980391,                   101P    159
4.83757008980391,6.28318530717959,6.28318530717959,                  101P    160
6.28318530717959,1.,0.749951474324443,1.,7.6,4.5,                    101P    161
-6.10622663543836D-15,7.6,4.5,6.70356123908973,                      101P    162
0.948893650389365,4.5,7.54053054103295,4.83757008980391,             101P    163
6.28318530717959,0.,0.,0.;                                           101P    164
126,1,1,0,0,1,0,-4.15384615384615,-4.15384615384615,0.,0.,1.,1.,     103P    165
3.25,0.,0.,3.25,13.5,0.,-4.15384615384615,0.,0.,0.,0.;               103P    166
126,8,2,0,1,0,0,-3.14159265358979,-3.14159265358979,                 105P    167
-3.14159265358979,-1.5707963267949,-1.5707963267949,0.,0.,           105P    168
1.5707963267949,1.5707963267949,3.14159265358979,                    105P    169
3.14159265358979,3.14159265358979,1.,0.707106781186547,1.,           105P    170
0.707106781186548,1.,0.707106781186548,1.,0.707106781186547,1.,      105P    171
10.,4.5,7.39557098644699D-31,10.,4.5,-10.,6.12323399573677D-16,      105P    172
4.5,-10.,-10.,4.5,-10.,-10.,4.5,-1.22464679914735D-15,-10.,4.5,      105P    173
10.,-1.83697019872103D-15,4.5,10.,10.,4.5,10.,10.,4.5,               105P    174
2.44929359829471D-15,-3.14159265358979,3.14159265358979,0.,0.,       105P    175
0.;                                                                  105P    176
126,1,1,0,0,1,0,-0.45,-0.45,0.,0.,1.,1.,10.,4.5,0.,10.,0.,0.,        107P    177
-0.45,0.,0.,0.,0.;                                                   107P    178
126,8,2,0,1,0,0,-3.14159265358979,-3.14159265358979,                 109P    179
-3.14159265358979,-1.5707963267949,-1.5707963267949,0.,0.,           109P    180
1.5707963267949,1.5707963267949,3.14159265358979,                    109P    181
3.14159265358979,3.14159265358979,1.,0.707106781186548,1.,           109P    182
0.707106781186548,1.,0.70710678118655,1.,0.70710678118655,1.,        109P    183
-2.17297464309078,3.5,4.57021271231967,-2.17297464309078,3.5,        109P    184
3.82021271231967,-2.92297464309078,3.5,3.82021271231967,             109P    185
-3.67297464309078,3.5,3.82021271231967,-3.67297464309078,3.5,        109P    186
4.57021271231967,-3.67297464309078,3.5,5.32021271231967,             109P    187
-2.92297464309078,3.5,5.32021271231967,-2.17297464309078,3.5,        109P    188
5.32021271231967,-2.17297464309078,3.5,4.57021271231967,             109P    189
-3.14159265358979,3.14159265358979,0.,0.,0.;                         109P    190
126,8,2,0,1,0,0,-3.14159265358979,-3.14159265358979,                 111P    191
-3.14159265358979,-1.5707963267949,-1.5707963267949,0.,0.,           111P    192
1.5707963267949,1.5707963267949,3.14159265358979,                    111P    193
3.14159265358979,3.14159265358979,1.,0.70710678118655,1.,            111P    194
0.70710678118655,1.,0.707106781186548,1.,0.707106781186548,1.,       111P    195
3.67297464309078,3.5,-4.57021271231967,3.67297464309078,3.5,         111P    196
-5.32021271231967,2.92297464309078,3.5,-5.32021271231967,            111P    197
2.17297464309078,3.5,-5.32021271231967,2.17297464309078,3.5,         111P    198
-4.57021271231967,2.17297464309078,3.5,-3.82021271231967,            111P    199
2.92297464309078,3.5,-3.82021271231967,3.67297464309078,3.5,         111P    200
-3.82021271231967,3.67297464309078,3.5,-4.57021271231967,            111P    201
-3.14159265358979,3.14159265358979,0.,0.,0.;                         111P    202
126,8,2,0,1,0,0,-3.14159265358979,-3.14159265358979,                 113P    203
-3.14159265358979,-1.5707963267949,-1.5707963267949,0.,0.,           113P    204
1.5707963267949,1.5707963267949,3.14159265358979,                    113P    205
3.14159265358979,3.14159265358979,1.,0.707106781186548,1.,           113P    206
0.70710678118655,1.,0.70710678118655,1.,0.707106781186548,1.,        113P    207
-3.82021271231967,3.5,-2.92297464309078,-3.82021271231967,3.5,       113P    208
-3.67297464309078,-4.57021271231967,3.5,-3.67297464309078,           113P    209
-5.32021271231967,3.5,-3.67297464309078,-5.32021271231967,3.5,       113P    210
-2.92297464309078,-5.32021271231967,3.5,-2.17297464309078,           113P    211
-4.57021271231967,3.5,-2.17297464309078,-3.82021271231967,3.5,       113P    212
-2.17297464309078,-3.82021271231967,3.5,-2.92297464309078,           113P    213
-3.14159265358979,3.14159265358979,0.,0.,0.;                         113P    214
126,8,2,0,1,0,0,-3.14159265358979,-3.14159265358979,                 115P    215
-3.14159265358979,-1.5707963267949,-1.5707963267949,0.,0.,           115P    216
1.5707963267949,1.5707963267949,3.14159265358979,                    115P    217
3.14159265358979,3.14159265358979,1.,0.707106781186549,1.,           115P    218
0.707106781186548,1.,0.707106781186548,1.,0.707106781186549,1.,      115P    219
5.32021271231967,3.5,2.92297464309078,5.32021271231967,3.5,          115P    220
2.17297464309078,4.57021271231967,3.5,2.17297464309078,              115P    221
3.82021271231967,3.5,2.17297464309078,3.82021271231967,3.5,          115P    222
2.92297464309078,3.82021271231967,3.5,3.67297464309078,              115P    223
4.57021271231967,3.5,3.67297464309078,5.32021271231967,3.5,          115P    224
3.67297464309078,5.32021271231967,3.5,2.92297464309078,              115P    225
-3.14159265358979,3.14159265358979,0.,0.,0.;                         115P    226
126,1,1,0,0,1,0,-13.3333333333333,-13.3333333333333,0.,0.,1.,1.,     117P    227
5.32021271231967,3.5,2.92297464309078,5.32021271231967,13.5,         117P    228
2.92297464309078,-13.3333333333333,0.,0.,0.,0.;                      117P    229
126,1,1,0,0,1,0,-13.3333333333333,-13.3333333333333,0.,0.,1.,1.,     119P    230
-3.82021271231967,3.5,-2.92297464309078,-3.82021271231967,13.5,      119P    231
-2.92297464309078,-13.3333333333333,0.,0.,0.,0.;                     119P    232
126,1,1,0,0,1,0,-13.3333333333333,-13.3333333333333,0.,0.,1.,1.,     121P    233
3.67297464309078,3.5,-4.57021271231967,3.67297464309078,13.5,        121P    234
-4.57021271231967,-13.3333333333333,0.,0.,0.,0.;                     121P    235
126,1,1,0,0,1,0,-13.3333333333333,-13.3333333333333,0.,0.,1.,1.,     123P    236
-2.17297464309078,3.5,4.57021271231967,-2.17297464309078,13.5,       123P    237
4.57021271231967,-13.3333333333333,0.,0.,0.,0.;                      123P    238
128,1,1,1,1,0,0,1,0,0,-0.849942419142327,-0.849942419142327,         125P    239
0.849942419142135,0.849942419142135,-0.849942419142232,              125P    240
-0.849942419142232,0.849942419142231,0.849942419142231,1.,1.,1.,     125P    241
1.,-8.49942419142231,13.5,-8.49942419142231,-8.49942419142231,       125P    242
13.5,8.49942419142231,8.49942419142231,13.5,-8.49942419142231,       125P    243
8.49942419142231,13.5,8.49942419142231,-0.849942419142327,           125P    244
0.849942419142135,-0.849942419142232,0.849942419142231;              125P    245
128,1,1,1,1,0,0,1,0,0,-1.00100000011336,-1.00100000011336,           127P    246
1.00099999988664,1.00099999988664,-1.001,-1.001,1.001,1.001,1.,      127P    247
1.,1.,1.,-10.01,0.,10.01,-10.01,0.,-10.01,10.01,0.,10.01,10.01,      127P    248
0.,-10.01,-1.00100000011336,1.00099999988664,-1.001,1.001;           127P    249
128,1,8,1,2,0,1,0,0,1,-1.18421052631579,-1.18421052631579,0.,0.,     129P    250
-3.14159265358979,-3.14159265358979,-3.14159265358979,               129P    251
-1.5707963267949,-1.5707963267949,0.,0.,1.5707963267949,             129P    252
1.5707963267949,3.14159265358979,3.14159265358979,                   129P    253
3.14159265358979,1.,1.,0.707106781186548,0.707106781186548,1.,       129P    254
1.,0.707106781186548,0.707106781186548,1.,1.,0.707106781186548,      129P    255
0.707106781186548,1.,1.,0.707106781186548,0.707106781186548,1.,      129P    256
1.,7.6,13.5,0.,7.6,4.5,0.,7.6,13.5,-7.6,7.6,4.5,-7.6,0.,13.5,        129P    257
-7.6,0.,4.5,-7.6,-7.6,13.5,-7.6,-7.6,4.5,-7.6,-7.6,13.5,0.,-7.6,     129P    258
4.5,0.,-7.6,13.5,7.6,-7.6,4.5,7.6,0.,13.5,7.6,0.,4.5,7.6,7.6,        129P    259
13.5,7.6,7.6,4.5,7.6,7.6,13.5,0.,7.6,4.5,0.,-1.18421052631579,       129P    260
0.,-3.14159265358979,3.14159265358979;                               129P    261
128,1,8,1,2,0,1,0,0,1,-4.15384615384615,-4.15384615384615,0.,0.,     131P    262
-3.14159265358979,-3.14159265358979,-3.14159265358979,               131P    263
-1.5707963267949,-1.5707963267949,0.,0.,1.5707963267949,             131P    264
1.5707963267949,3.14159265358979,3.14159265358979,                   131P    265
3.14159265358979,1.,1.,0.707106781186548,0.707106781186548,1.,       131P    266
1.,0.707106781186548,0.707106781186548,1.,1.,0.707106781186548,      131P    267
0.707106781186548,1.,1.,0.707106781186548,0.707106781186548,1.,      131P    268
1.,3.25,0.,0.,3.25,13.5,0.,3.25,0.,-3.25,3.25,13.5,-3.25,0.,0.,      131P    269
-3.25,0.,13.5,-3.25,-3.25,0.,-3.25,-3.25,13.5,-3.25,-3.25,0.,0.,     131P    270
-3.25,13.5,0.,-3.25,0.,3.25,-3.25,13.5,3.25,0.,0.,3.25,0.,13.5,      131P    271
3.25,3.25,0.,3.25,3.25,13.5,3.25,3.25,0.,0.,3.25,13.5,0.,            131P    272
-4.15384615384615,0.,-3.14159265358979,3.14159265358979;             131P    273
128,1,1,1,1,0,0,1,0,0,-1.001,-1.001,1.001,1.001,-1.001,-1.001,       133P    274
1.001,1.001,1.,1.,1.,1.,-10.01,4.5,-10.01,-10.01,4.5,10.01,          133P    275
10.01,4.5,-10.01,10.01,4.5,10.01,-1.001,1.001,-1.001,1.001;          133P    276
128,1,8,1,2,0,1,0,0,1,0.,0.,0.45,0.45,-3.14159265358979,             135P    277
-3.14159265358979,-3.14159265358979,-1.5707963267949,                135P    278
-1.5707963267949,0.,0.,1.5707963267949,1.5707963267949,              135P    279
3.14159265358979,3.14159265358979,3.14159265358979,1.,1.,            135P    280
0.707106781186548,0.707106781186548,1.,1.,0.707106781186548,         135P    281
0.707106781186548,1.,1.,0.707106781186548,0.707106781186548,1.,      135P    282
1.,0.707106781186548,0.707106781186548,1.,1.,10.,4.5,0.,10.,0.,      135P    283
0.,10.,4.5,-10.,10.,0.,-10.,0.,4.5,-10.,0.,0.,-10.,-10.,4.5,         135P    284
-10.,-10.,0.,-10.,-10.,4.5,0.,-10.,0.,0.,-10.,4.5,10.,-10.,0.,       135P    285
10.,0.,4.5,10.,0.,0.,10.,10.,4.5,10.,10.,0.,10.,10.,4.5,0.,10.,      135P    286
0.,0.,0.,0.45,-3.14159265358979,3.14159265358979;                    135P    287
128,1,1,1,1,0,0,1,0,0,0.381021271231967,0.381021271231967,           137P    288
0.533021271231967,0.533021271231967,-0.368297464309078,              137P    289
-0.368297464309078,-0.216297464309078,-0.216297464309078,1.,1.,      137P    290
1.,1.,-3.68297464309078,3.5,3.81021271231967,-3.68297464309078,      137P    291
3.5,5.33021271231967,-2.16297464309078,3.5,3.81021271231967,         137P    292
-2.16297464309078,3.5,5.33021271231967,0.381021271231967,            137P    293
0.533021271231967,-0.368297464309078,-0.216297464309078;             137P    294
128,1,1,1,1,0,0,1,0,0,-0.533021271231967,-0.533021271231967,         139P    295
-0.381021271231967,-0.381021271231967,0.216297464309078,             139P    296
0.216297464309078,0.368297464309078,0.368297464309078,1.,1.,1.,      139P    297
1.,2.16297464309078,3.5,-5.33021271231967,2.16297464309078,3.5,      139P    298
-3.81021271231967,3.68297464309078,3.5,-5.33021271231967,            139P    299
3.68297464309078,3.5,-3.81021271231967,-0.533021271231967,           139P    300
-0.381021271231967,0.216297464309078,0.368297464309078;              139P    301
128,1,1,1,1,0,0,1,0,0,-0.368297464309078,-0.368297464309078,         141P    302
-0.216297464309078,-0.216297464309078,-0.533021271231967,            141P    303
-0.533021271231967,-0.381021271231967,-0.381021271231967,1.,1.,      141P    304
1.,1.,-5.33021271231967,3.5,-3.68297464309078,-5.33021271231967,     141P    305
3.5,-2.16297464309078,-3.81021271231967,3.5,-3.68297464309078,       141P    306
-3.81021271231967,3.5,-2.16297464309078,-0.368297464309078,          141P    307
-0.216297464309078,-0.533021271231967,-0.381021271231967;            141P    308
128,1,1,1,1,0,0,1,0,0,0.216297464309078,0.216297464309078,           143P    309
0.368297464309078,0.368297464309078,0.381021271231967,               143P    310
0.381021271231967,0.533021271231967,0.533021271231967,1.,1.,1.,      143P    311
1.,3.81021271231967,3.5,2.16297464309078,3.81021271231967,3.5,       143P    312
3.68297464309078,5.33021271231967,3.5,2.16297464309078,              143P    313
5.33021271231967,3.5,3.68297464309078,0.216297464309078,             143P    314
0.368297464309078,0.381021271231967,0.533021271231967;               143P    315
128,1,8,1,2,0,1,0,0,1,-13.3333333333333,-13.3333333333333,0.,0.,     145P    316
-3.14159265358979,-3.14159265358979,-3.14159265358979,               145P    317
-1.5707963267949,-1.5707963267949,0.,0.,1.5707963267949,             145P    318
1.5707963267949,3.14159265358979,3.14159265358979,                   145P    319
3.14159265358979,1.,1.,0.707106781186548,0.707106781186548,1.,       145P    320
1.,0.707106781186548,0.707106781186548,1.,1.,0.707106781186548,      145P    321
0.707106781186548,1.,1.,0.707106781186548,0.707106781186548,1.,      145P    322
1.,5.32021271231967,3.5,2.92297464309078,5.32021271231967,13.5,      145P    323
2.92297464309078,5.32021271231967,3.5,2.17297464309078,              145P    324
5.32021271231967,13.5,2.17297464309078,4.57021271231967,3.5,         145P    325
2.17297464309078,4.57021271231967,13.5,2.17297464309078,             145P    326
3.82021271231967,3.5,2.17297464309078,3.82021271231967,13.5,         145P    327
2.17297464309078,3.82021271231967,3.5,2.92297464309078,              145P    328
3.82021271231967,13.5,2.92297464309078,3.82021271231967,3.5,         145P    329
3.67297464309078,3.82021271231967,13.5,3.67297464309078,             145P    330
4.57021271231967,3.5,3.67297464309078,4.57021271231967,13.5,         145P    331
3.67297464309078,5.32021271231967,3.5,3.67297464309078,              145P    332
5.32021271231967,13.5,3.67297464309078,5.32021271231967,3.5,         145P    333
2.92297464309078,5.32021271231967,13.5,2.92297464309078,             145P    334
-13.3333333333333,0.,-3.14159265358979,3.14159265358979;             145P    335
128,1,8,1,2,0,1,0,0,1,-13.3333333333333,-13.3333333333333,0.,0.,     147P    336
-3.14159265358979,-3.14159265358979,-3.14159265358979,               147P    337
-1.5707963267949,-1.5707963267949,0.,0.,1.5707963267949,             147P    338
1.5707963267949,3.14159265358979,3.14159265358979,                   147P    339
3.14159265358979,1.,1.,0.707106781186548,0.707106781186548,1.,       147P    340
1.,0.707106781186548,0.707106781186548,1.,1.,0.707106781186548,      147P    341
0.707106781186548,1.,1.,0.707106781186548,0.707106781186548,1.,      147P    342
1.,-3.82021271231967,3.5,-2.92297464309078,-3.82021271231967,        147P    343
13.5,-2.92297464309078,-3.82021271231967,3.5,-3.67297464309078,      147P    344
-3.82021271231967,13.5,-3.67297464309078,-4.57021271231967,3.5,      147P    345
-3.67297464309078,-4.57021271231967,13.5,-3.67297464309078,          147P    346
-5.32021271231967,3.5,-3.67297464309078,-5.32021271231967,13.5,      147P    347
-3.67297464309078,-5.32021271231967,3.5,-2.92297464309078,           147P    348
-5.32021271231967,13.5,-2.92297464309078,-5.32021271231967,3.5,      147P    349
-2.17297464309078,-5.32021271231967,13.5,-2.17297464309078,          147P    350
-4.57021271231967,3.5,-2.17297464309078,-4.57021271231967,13.5,      147P    351
-2.17297464309078,-3.82021271231967,3.5,-2.17297464309078,           147P    352
-3.82021271231967,13.5,-2.17297464309078,-3.82021271231967,3.5,      147P    353
-2.92297464309078,-3.82021271231967,13.5,-2.92297464309078,          147P    354
-13.3333333333333,0.,-3.14159265358979,3.14159265358979;             147P    355
128,1,8,1,2,0,1,0,0,1,-13.3333333333333,-13.3333333333333,0.,0.,     149P    356
-3.14159265358979,-3.14159265358979,-3.14159265358979,               149P    357
-1.5707963267949,-1.5707963267949,0.,0.,1.5707963267949,             149P    358
1.5707963267949,3.14159265358979,3.14159265358979,                   149P    359
3.14159265358979,1.,1.,0.707106781186548,0.707106781186548,1.,       149P    360
1.,0.707106781186548,0.707106781186548,1.,1.,0.707106781186548,      149P    361
0.707106781186548,1.,1.,0.707106781186548,0.707106781186548,1.,      149P    362
1.,3.67297464309078,3.5,-4.57021271231967,3.67297464309078,13.5,     149P    363
-4.57021271231967,3.67297464309078,3.5,-5.32021271231967,            149P    364
3.67297464309078,13.5,-5.32021271231967,2.92297464309078,3.5,        149P    365
-5.32021271231967,2.92297464309078,13.5,-5.32021271231967,           149P    366
2.17297464309078,3.5,-5.32021271231967,2.17297464309078,13.5,        149P    367
-5.32021271231967,2.17297464309078,3.5,-4.57021271231967,            149P    368
2.17297464309078,13.5,-4.57021271231967,2.17297464309078,3.5,        149P    369
-3.82021271231967,2.17297464309078,13.5,-3.82021271231967,           149P    370
2.92297464309078,3.5,-3.82021271231967,2.92297464309078,13.5,        149P    371
-3.82021271231967,3.67297464309078,3.5,-3.82021271231967,            149P    372
3.67297464309078,13.5,-3.82021271231967,3.67297464309078,3.5,        149P    373
-4.57021271231967,3.67297464309078,13.5,-4.57021271231967,           149P    374
-13.3333333333333,0.,-3.14159265358979,3.14159265358979;             149P    375
128,1,8,1,2,0,1,0,0,1,-13.3333333333333,-13.3333333333333,0.,0.,     151P    376
-3.14159265358979,-3.14159265358979,-3.14159265358979,               151P    377
-1.5707963267949,-1.5707963267949,0.,0.,1.5707963267949,             151P    378
1.5707963267949,3.14159265358979,3.14159265358979,                   151P    379
3.14159265358979,1.,1.,0.707106781186548,0.707106781186548,1.,       151P    380
1.,0.707106781186548,0.707106781186548,1.,1.,0.707106781186548,      151P    381
0.707106781186548,1.,1.,0.707106781186548,0.707106781186548,1.,      151P    382
1.,-2.17297464309078,3.5,4.57021271231967,-2.17297464309078,         151P    383
13.5,4.57021271231967,-2.17297464309078,3.5,3.82021271231967,        151P    384
-2.17297464309078,13.5,3.82021271231967,-2.92297464309078,3.5,       151P    385
3.82021271231967,-2.92297464309078,13.5,3.82021271231967,            151P    386
-3.67297464309078,3.5,3.82021271231967,-3.67297464309078,13.5,       151P    387
3.82021271231967,-3.67297464309078,3.5,4.57021271231967,             151P    388
-3.67297464309078,13.5,4.57021271231967,-3.67297464309078,3.5,       151P    389
5.32021271231967,-3.67297464309078,13.5,5.32021271231967,            151P    390
-2.92297464309078,3.5,5.32021271231967,-2.92297464309078,13.5,       151P    391
5.32021271231967,-2.17297464309078,3.5,5.32021271231967,             151P    392
-2.17297464309078,13.5,5.32021271231967,-2.17297464309078,3.5,       151P    393
4.57021271231967,-2.17297464309078,13.5,4.57021271231967,            151P    394
-13.3333333333333,0.,-3.14159265358979,3.14159265358979;             151P    395
502,18,0.948893650389356,13.5,7.54053054103296,7.6,13.5,0.,          153P    396
5.32021271231967,13.5,2.92297464309078,-3.82021271231967,13.5,       153P    397
-2.92297464309078,3.67297464309078,13.5,-4.57021271231967,           153P    398
-2.17297464309078,13.5,4.57021271231967,-3.25,13.5,                  153P    399
-5.97015314584331D-16,3.25,13.5,0.,10.,0.,1.22464679923202D-15,      153P    400
-3.25,0.,-3.98010209719387D-16,3.25,0.,0.,7.6,4.5,0.,                153P    401
0.948893650389363,4.5,7.54053054103295,10.,4.5,                      153P    402
1.22464679914735D-15,-2.17297464309078,3.5,4.57021271231967,         153P    403
3.67297464309078,3.5,-4.57021271231967,-3.82021271231967,3.5,        153P    404
-2.92297464309078,5.32021271231967,3.5,2.92297464309078;             153P    405
504,25,75,153,1,153,2,77,153,2,153,1,79,153,3,153,3,81,153,4,        155P    406
153,4,83,153,5,153,5,85,153,6,153,6,87,153,7,153,8,89,153,8,153,     155P    407
7,91,153,9,153,9,93,153,10,153,11,95,153,11,153,10,97,153,2,153,     155P    408
12,99,153,13,153,12,101,153,12,153,13,103,153,11,153,8,105,153,      155P    409
14,153,14,107,153,14,153,9,109,153,15,153,15,111,153,16,153,16,      155P    410
113,153,17,153,17,115,153,18,153,18,117,153,18,153,3,119,153,17,     155P    411
153,4,121,153,16,153,5,123,153,15,153,6;                             155P    412
406,1,8HSólido1;                                                    157P    413
314,74.9019607843137,74.9019607843137,74.9019607843137,;             159P    414
314,60.,60.,60.,;                                                    161P    415
S      1G      3D    162P    415                                        T      1
