                                                                        S      1
,,,18HBaseBeamSplitter-D,22HAutodesk Inventor 2022,7Hunknown,32,38,7,99,G      1
15,,1.,2,2HMM,1,0.08,15H20220601.182152,0.01,10000.,5Hmabel,,11,0,15H202G      2
20408.000000;                                                           G      3
     186       1                                                00000000D      1
     186            -167       1       0                               0D      2
     514       2                                                00010000D      3
     514                       2       1                               0D      4
     510       4                                                00010000D      5
     510            -167       1       1                               0D      6
     510       5                                                00010000D      7
     510            -167       1       1                               0D      8
     510       6                                                00010000D      9
     510            -167       1       1                               0D     10
     510       7                                                00010000D     11
     510            -167       1       1                               0D     12
     510       8                                                00010000D     13
     510            -167       1       1                               0D     14
     510       9                                                00010000D     15
     510            -167       1       1                               0D     16
     510      10                                                00010000D     17
     510            -167       1       1                               0D     18
     510      11                                                00010000D     19
     510            -167       1       1                               0D     20
     510      12                                                00010000D     21
     510            -167       1       1                               0D     22
     510      13                                                00010000D     23
     510            -167       1       1                               0D     24
     510      14                                                00010000D     25
     510            -167       1       1                               0D     26
     510      15                                                00010000D     27
     510            -167       1       1                               0D     28
     510      16                                                00010000D     29
     510            -167       1       1                               0D     30
     510      17                                                00010000D     31
     510            -167       1       1                               0D     32
     508      18                                                00010000D     33
     508                       1       1                               0D     34
     508      19                                                00010000D     35
     508                       1       1                               0D     36
     508      20                                                00010000D     37
     508                       1       1                               0D     38
     508      21                                                00010000D     39
     508                       1       1                               0D     40
     508      22                                                00010000D     41
     508                       1       1                               0D     42
     508      23                                                00010000D     43
     508                       3       1                               0D     44
     508      26                                                00010000D     45
     508                       1       1                               0D     46
     508      27                                                00010000D     47
     508                       1       1                               0D     48
     508      28                                                00010000D     49
     508                       3       1                               0D     50
     508      31                                                00010000D     51
     508                       1       1                               0D     52
     508      32                                                00010000D     53
     508                       2       1                               0D     54
     508      34                                                00010000D     55
     508                       1       1                               0D     56
     508      35                                                00010000D     57
     508                       2       1                               0D     58
     508      37                                                00010000D     59
     508                       1       1                               0D     60
     126      38                                                00010000D     61
     126       0               2       0                               0D     62
     126      40                                                00010000D     63
     126       0               2       0                               0D     64
     126      42                                                00010000D     65
     126       0               2       0                               0D     66
     126      44                                                00010000D     67
     126       0               2       0                               0D     68
     126      46                                                00010000D     69
     126       0               2       0                               0D     70
     126      48                                                00010000D     71
     126       0               3       0                               0D     72
     126      51                                                00010000D     73
     126       0               2       0                               0D     74
     126      53                                                00010000D     75
     126       0               2       0                               0D     76
     126      55                                                00010000D     77
     126       0               2       0                               0D     78
     126      57                                                00010000D     79
     126       0               2       0                               0D     80
     126      59                                                00010000D     81
     126       0               3       0                               0D     82
     126      62                                                00010000D     83
     126       0               2       0                               0D     84
     126      64                                                00010000D     85
     126       0               2       0                               0D     86
     126      66                                                00010000D     87
     126       0               2       0                               0D     88
     126      68                                                00010000D     89
     126       0               4       0                               0D     90
     126      72                                                00010000D     91
     126       0               4       0                               0D     92
     126      76                                                00010000D     93
     126       0               2       0                               0D     94
     126      78                                                00010000D     95
     126       0               2       0                               0D     96
     126      80                                                00010000D     97
     126       0               3       0                               0D     98
     126      83                                                00010000D     99
     126       0               3       0                               0D    100
     126      86                                                00010000D    101
     126       0               2       0                               0D    102
     126      88                                                00010000D    103
     126       0               3       0                               0D    104
     126      91                                                00010000D    105
     126       0               2       0                               0D    106
     126      93                                                00010000D    107
     126       0               3       0                               0D    108
     126      96                                                00010000D    109
     126       0               2       0                               0D    110
     126      98                                                00010000D    111
     126       0               2       0                               0D    112
     126     100                                                00010000D    113
     126       0               3       0                               0D    114
     126     103                                                00010000D    115
     126       0               2       0                               0D    116
     126     105                                                00010000D    117
     126       0               2       0                               0D    118
     126     107                                                00010000D    119
     126       0               3       0                               0D    120
     126     110                                                00010000D    121
     126       0               2       0                               0D    122
     126     112                                                00010000D    123
     126       0               2       0                               0D    124
     126     114                                                00010000D    125
     126       0               2       0                               0D    126
     126     116                                                00010000D    127
     126       0               2       0                               0D    128
     126     118                                                00010000D    129
     126       0               2       0                               0D    130
     126     120                                                00010000D    131
     126       0               2       0                               0D    132
     128     122                                                00010000D    133
     128       0    -167       3       0                               0D    134
     128     125                                                00010000D    135
     128       0    -167       5       0                               0D    136
     128     130                                                00010000D    137
     128       0    -167       5       0                               0D    138
     128     135                                                00010000D    139
     128       0    -167       3       0                               0D    140
     128     138                                                00010000D    141
     128       0    -167       7       0                               0D    142
     128     145                                                00010000D    143
     128       0    -167       4       0                               0D    144
     128     149                                                00010000D    145
     128       0    -167       4       0                               0D    146
     128     153                                                00010000D    147
     128       0    -167       6       0                               0D    148
     128     159                                                00010000D    149
     128       0    -167       4       0                               0D    150
     128     163                                                00010000D    151
     128       0    -167       4       0                               0D    152
     128     167                                                00010000D    153
     128       0    -167       5       0                               0D    154
     128     172                                                00010000D    155
     128       0    -167       4       0                               0D    156
     128     176                                                00010000D    157
     128       0    -167       5       0                               0D    158
     128     181                                                00010000D    159
     128       0    -167       6       0                               0D    160
     502     187                                                00010000D    161
     502                       9       1                               0D    162
     504     196                                                00010001D    163
     504                      10       1                               0D    164
     406     206                                                00000000D    165
     406                       1      15                               0D    166
     314     207                                                00000200D    167
     314                       1       0                               0D    168
186,3,1,0,0,1,165;                                                     1P      1
514,14,5,1,7,1,9,1,11,1,13,1,15,1,17,1,19,1,21,1,23,1,25,1,27,1,       3P      2
29,1,31,1;                                                             3P      3
510,133,1,1,33;                                                        5P      4
510,135,1,1,35;                                                        7P      5
510,137,1,1,37;                                                        9P      6
510,139,1,1,39;                                                       11P      7
510,141,1,1,41;                                                       13P      8
510,143,1,1,43;                                                       15P      9
510,145,1,1,45;                                                       17P     10
510,147,1,1,47;                                                       19P     11
510,149,1,1,49;                                                       21P     12
510,151,1,1,51;                                                       23P     13
510,153,1,1,53;                                                       25P     14
510,155,1,1,55;                                                       27P     15
510,157,1,1,57;                                                       29P     16
510,159,1,1,59;                                                       31P     17
508,4,0,163,1,1,0,0,163,2,1,0,0,163,3,0,0,0,163,4,0,0;                33P     18
508,4,0,163,5,1,0,0,163,3,1,0,0,163,6,1,0,0,163,7,1,0;                35P     19
508,4,0,163,8,1,0,0,163,9,1,0,0,163,10,1,0,0,163,11,1,0;              37P     20
508,4,0,163,12,1,0,0,163,8,0,0,0,163,13,0,0,0,163,14,1,0;             39P     21
508,4,0,163,15,0,0,0,163,14,0,0,0,163,16,0,0,0,163,1,0,0;             41P     22
508,10,0,163,12,0,0,0,163,15,1,0,0,163,4,1,0,0,163,5,0,0,0,163,       43P     23
17,1,0,0,163,18,1,0,0,163,19,1,0,0,163,20,1,0,0,163,21,1,0,0,         43P     24
163,9,0,0;                                                            43P     25
508,4,0,163,22,0,0,0,163,23,0,0,0,163,24,0,0,0,163,25,0,0;            45P     26
508,4,0,163,26,0,0,0,163,27,0,0,0,163,28,0,0,0,163,24,1,0;            47P     27
508,10,0,163,13,1,0,0,163,11,0,0,0,163,29,0,0,0,163,27,1,0,0,         49P     28
163,30,1,0,0,163,31,1,0,0,163,32,1,0,0,163,6,0,0,0,163,2,0,0,0,       49P     29
163,16,1,0;                                                           49P     30
508,4,0,163,18,0,0,0,163,33,1,0,0,163,31,0,0,0,163,34,0,0;            51P     31
508,6,0,163,23,1,0,0,163,35,1,0,0,163,19,0,0,0,163,34,1,0,0,163,      53P     32
30,0,0,0,163,26,1,0;                                                  53P     33
508,4,0,163,17,0,0,0,163,7,0,0,0,163,32,0,0,0,163,33,0,0;             55P     34
508,6,0,163,21,0,0,0,163,36,0,0,0,163,25,1,0,0,163,28,1,0,0,163,      57P     35
29,1,0,0,163,10,0,0;                                                  57P     36
508,4,0,163,22,1,0,0,163,36,1,0,0,163,20,0,0,0,163,35,0,0;            59P     37
126,1,1,0,0,1,0,-0.7,-0.7,0.2,0.2,1.,1.,35.,0.,5.,35.,0.,-4.,         61P     38
-0.7,0.2,0.,0.,0.;                                                    61P     39
126,1,1,0,0,1,0,0.,0.,0.5,0.5,1.,1.,35.,0.,-4.,35.,-5.,-4.,0.,        63P     40
0.5,0.,0.,0.;                                                         63P     41
126,1,1,0,0,1,0,0.,0.,0.9,0.9,1.,1.,35.,-5.,5.,35.,-5.,-4.,0.,        65P     42
0.9,0.,0.,0.;                                                         65P     43
126,1,1,0,0,1,0,0.,0.,0.5,0.5,1.,1.,35.,0.,5.,35.,-5.,5.,0.,0.5,      67P     44
0.,0.,0.;                                                             67P     45
126,1,1,0,0,1,0,0.,0.,1.29299466745255,1.29299466745255,1.,1.,        69P     46
47.9299466745255,-5.,5.,35.,-5.,5.,0.,1.29299466745255,0.,0.,0.;      69P     47
126,1,1,0,0,1,0,0.,0.,1.29299466745255,1.29299466745255,1.,1.,        71P     48
35.,-5.,-4.,47.9299466745255,-5.,-4.,0.,1.29299466745255,0.,0.,       71P     49
0.;                                                                   71P     50
126,1,1,0,0,1,0,0.,0.,0.9,0.9,1.,1.,47.9299466745255,-5.,-4.,         73P     51
47.9299466745255,-5.,5.,0.,0.9,0.,0.,0.;                              73P     52
126,1,1,0,0,1,0,0.,0.,0.9,0.9,1.,1.,0.,-5.,-4.,0.,-5.,5.,0.,0.9,      75P     53
0.,0.,0.;                                                             75P     54
126,1,1,0,0,1,0,0.,0.,0.90700533254745,0.90700533254745,1.,1.,        77P     55
0.,-5.,5.,-9.0700533254745,-5.,5.,0.,0.90700533254745,0.,0.,0.;       77P     56
126,1,1,0,0,1,0,0.,0.,0.9,0.9,1.,1.,-9.0700533254745,-5.,5.,          79P     57
-9.0700533254745,-5.,-4.,0.,0.9,0.,0.,0.;                             79P     58
126,1,1,0,0,1,0,0.,0.,0.90700533254745,0.90700533254745,1.,1.,        81P     59
-9.0700533254745,-5.,-4.,0.,-5.,-4.,0.,0.90700533254745,0.,0.,        81P     60
0.;                                                                   81P     61
126,1,1,0,0,1,0,-3.5,-3.5,0.5,0.5,1.,1.,0.,35.,5.,0.,-5.,5.,          83P     62
-3.5,0.5,0.,0.,0.;                                                    83P     63
126,1,1,0,0,1,0,-3.5,-3.5,0.5,0.5,1.,1.,0.,35.,-4.,0.,-5.,-4.,        85P     64
-3.5,0.5,0.,0.,0.;                                                    85P     65
126,1,1,0,0,1,0,0.,0.,0.9,0.9,1.,1.,0.,35.,-4.,0.,35.,5.,0.,0.9,      87P     66
0.,0.,0.;                                                             87P     67
126,1,1,0,0,1,0,-3.39163579062104,-3.39163579062104,                  89P     68
1.55811167768479,1.55811167768479,1.,1.,4.44089209850063D-15,         89P     69
35.,5.,35.,-2.22044604925031D-15,5.,-3.39163579062104,                89P     70
1.55811167768479,0.,0.,0.;                                            89P     71
126,1,1,0,0,1,0,0.315721292459562,0.315721292459562,                  91P     72
5.2654687607654,5.2654687607654,1.,1.,35.,2.77555756156289D-15,       91P     73
-4.,-4.44089209850063D-15,35.,-4.,0.315721292459562,                  91P     74
5.2654687607654,0.,0.,0.;                                             91P     75
126,1,1,0,0,1,0,-0.5,-0.5,0.5,0.5,1.,1.,47.9299466745255,-5.,5.,      93P     76
47.9299466745255,5.,5.,-0.5,0.5,0.,0.,0.;                             93P     77
126,1,1,0,0,1,0,0.,0.,0.3,0.3,1.,1.,47.9299466745255,5.,5.,           95P     78
44.9299466745255,5.,5.,0.,0.3,0.,0.,0.;                               95P     79
126,1,1,0,0,1,0,-5.55111512312578D-17,-5.55111512312578D-17,0.5,      97P     80
0.5,1.,1.,44.9299466745255,5.,5.,44.9299466745255,                    97P     81
-5.55111512312578D-16,5.,-5.55111512312578D-17,0.5,0.,0.,0.;          97P     82
126,1,1,0,0,1,0,0.,0.,7.63675323681471,7.63675323681471,1.,1.,        99P     83
44.9299466745255,0.,5.,-9.07005332547451,54.,5.,0.,                   99P     84
7.63675323681471,0.,0.,0.;                                            99P     85
126,1,1,0,0,1,0,0.,0.,5.9,5.9,1.,1.,-9.0700533254745,54.,5.,         101P     86
-9.0700533254745,-5.,5.,0.,5.9,0.,0.,0.;                             101P     87
126,1,1,0,0,1,0,0.,0.,7.63675323681471,7.63675323681471,1.,1.,       103P     88
44.9299466745255,0.,0.,-9.07005332547451,54.,0.,0.,                  103P     89
7.63675323681471,0.,0.,0.;                                           103P     90
126,1,1,0,0,1,0,1.125,1.125,1.425,1.425,1.,1.,44.9299466745255,      105P     91
3.,0.,44.9299466745255,0.,0.,1.125,1.425,0.,0.,0.;                   105P     92
126,1,1,0,0,1,0,0.,0.,7.63675323681471,7.63675323681471,1.,1.,       107P     93
-9.0700533254745,57.,0.,44.9299466745255,2.99999999999999,0.,0.,     107P     94
7.63675323681471,0.,0.,0.;                                           107P     95
126,1,1,0,0,1,0,5.4,5.4,5.7,5.7,1.,1.,-9.0700533254745,54.,0.,       109P     96
-9.0700533254745,57.,0.,5.4,5.7,0.,0.,0.;                            109P     97
126,1,1,0,0,1,0,-0.65,-0.65,-0.25,-0.25,1.,1.,44.9299466745255,      111P     98
3.,-4.,44.9299466745255,3.,0.,-0.65,-0.25,0.,0.,0.;                  111P     99
126,1,1,0,0,1,0,0.,0.,7.63675323681471,7.63675323681471,1.,1.,       113P    100
-9.0700533254745,57.,-4.,44.9299466745255,2.99999999999999,-4.,      113P    101
0.,7.63675323681471,0.,0.,0.;                                        113P    102
126,1,1,0,0,1,0,0.,0.,0.4,0.4,1.,1.,-9.0700533254745,57.,0.,         115P    103
-9.0700533254745,57.,-4.,0.,0.4,0.,0.,0.;                            115P    104
126,1,1,0,0,1,0,-5.7,-5.7,0.5,0.5,1.,1.,-9.0700533254745,57.,        117P    105
-4.,-9.0700533254745,-5.,-4.,-5.7,0.5,0.,0.,0.;                      117P    106
126,1,1,0,0,1,0,-0.2,-0.2,5.55111512312578D-17,                      119P    107
5.55111512312578D-17,1.,1.,44.9299466745255,3.,-4.,                  119P    108
44.9299466745255,5.,-4.,-0.2,5.55111512312578D-17,0.,0.,0.;          119P    109
126,1,1,0,0,1,0,-0.3,-0.3,0.,0.,1.,1.,44.9299466745255,5.,-4.,       121P    110
47.9299466745255,5.,-4.,-0.3,0.,0.,0.,0.;                            121P    111
126,1,1,0,0,1,0,-0.5,-0.5,0.5,0.5,1.,1.,47.9299466745255,5.,-4.,     123P    112
47.9299466745255,-5.,-4.,-0.5,0.5,0.,0.,0.;                          123P    113
126,1,1,0,0,1,0,0.,0.,0.9,0.9,1.,1.,47.9299466745255,5.,5.,          125P    114
47.9299466745255,5.,-4.,0.,0.9,0.,0.,0.;                             125P    115
126,1,1,0,0,1,0,0.,0.,0.9,0.9,1.,1.,44.9299466745255,5.,5.,          127P    116
44.9299466745255,5.,-4.,0.,0.9,0.,0.,0.;                             127P    117
126,1,1,0,0,1,0,0.,0.,0.5,0.5,1.,1.,44.9299466745255,0.,0.,          129P    118
44.9299466745255,0.,5.,0.,0.5,0.,0.,0.;                              129P    119
126,1,1,0,0,1,0,0.,0.,0.5,0.5,1.,1.,-9.0700533254745,54.,0.,         131P    120
-9.0700533254745,54.,5.,0.,0.5,0.,0.,0.;                             131P    121
128,1,1,1,1,0,0,1,0,0,-0.001,-0.001,0.901,0.901,-0.001,-0.001,       133P    122
0.501,0.501,1.,1.,1.,1.,35.,0.01,5.01,35.,0.01,-4.01,35.,-5.01,      133P    123
5.01,35.,-5.01,-4.01,-0.001,0.901,-0.001,0.501;                      133P    124
128,1,1,1,1,0,0,1,0,0,-0.451,-0.451,0.451,0.451,                     135P    125
-0.647497333726275,-0.647497333726275,0.647497333726274,             135P    126
0.647497333726274,1.,1.,1.,1.,34.99,-5.,5.01,34.99,-5.,-4.01,        135P    127
47.9399466745255,-5.,5.01,47.9399466745255,-5.,-4.01,-0.451,         135P    128
0.451,-0.647497333726275,0.647497333726274;                          135P    129
128,1,1,1,1,0,0,1,0,0,-0.451,-0.451,0.451,0.451,                     137P    130
-0.454502666273725,-0.454502666273725,0.454502666273725,             137P    131
0.454502666273725,1.,1.,1.,1.,-9.0800533254745,-5.,5.01,             137P    132
-9.0800533254745,-5.,-4.01,0.01,-5.,5.01,0.01,-5.,-4.01,-0.451,      137P    133
0.451,-0.454502666273725,0.454502666273725;                          137P    134
128,1,1,1,1,0,0,1,0,0,-0.001,-0.001,4.001,4.001,-0.001,-0.001,       139P    135
0.901,0.901,1.,1.,1.,1.,0.,-5.01,-4.01,0.,35.01,-4.01,0.,-5.01,      139P    136
5.01,0.,35.01,5.01,-0.001,4.001,-0.001,0.901;                        139P    137
128,1,1,1,1,0,0,1,0,0,-0.00100000000000089,-0.00100000000000089,     141P    138
4.95074746830583,4.95074746830583,-0.001,-0.001,0.901,0.901,1.,      141P    139
1.,1.,1.,-0.00707106781187683,35.0070710678119,-4.01,                141P    140
35.0070710678119,-0.00707106781186731,-4.01,                         141P    141
-0.00707106781187683,35.0070710678119,5.01,35.0070710678119,         141P    142
-0.00707106781186731,5.01,-0.00100000000000089,4.95074746830583,     141P    143
-0.001,0.901;                                                        141P    144
128,1,1,1,1,0,0,1,0,0,-2.701,-2.701,3.001,3.001,-3.201,-3.201,       143P    145
2.701,2.701,1.,1.,1.,1.,-9.08005332547451,-5.01,5.,                  143P    146
47.9399466745255,-5.01,5.,-9.08005332547451,54.01,5.,                143P    147
47.9399466745255,54.01,5.,-2.701,3.001,-3.201,2.701;                 143P    148
128,1,1,1,1,0,0,1,0,0,-2.551,-2.551,2.851,2.851,-2.851,-2.851,       145P    149
2.851,2.851,1.,1.,1.,1.,-9.08005332547451,-0.0099999999999989,       145P    150
0.,44.9399466745255,-0.0099999999999989,0.,-9.08005332547451,        145P    151
57.01,0.,44.9399466745255,57.01,0.,-2.551,2.851,-2.851,2.851;        145P    152
128,1,1,1,1,0,0,1,0,0,-0.001,-0.001,7.63775323681471,                147P    153
7.63775323681471,-0.001,-0.001,0.401,0.401,1.,1.,1.,1.,              147P    154
-9.07712439328636,57.0070710678119,0.01,44.9370177423374,            147P    155
2.99292893218812,0.01,-9.07712439328636,57.0070710678119,-4.01,      147P    156
44.9370177423374,2.99292893218812,-4.01,-0.001,7.63775323681471,     147P    157
-0.001,0.401;                                                        147P    158
128,1,1,1,1,0,0,1,0,0,-0.151,-0.151,5.551,5.551,-0.751,-0.751,       149P    159
5.451,5.451,1.,1.,1.,1.,47.9399466745255,-5.01,-4.,                  149P    160
-9.0800533254745,-5.01,-4.,47.9399466745255,57.01,-4.,               149P    161
-9.0800533254745,57.01,-4.,-0.151,5.551,-0.751,5.451;                149P    162
128,1,1,1,1,0,0,1,0,0,-0.001,-0.001,0.301,0.301,-0.001,-0.001,       151P    163
0.901,0.901,1.,1.,1.,1.,44.9199466745255,5.,5.01,                    151P    164
47.9399466745255,5.,5.01,44.9199466745255,5.,-4.01,                  151P    165
47.9399466745255,5.,-4.01,-0.001,0.301,-0.001,0.901;                 151P    166
128,1,1,1,1,0,0,1,0,0,-0.001,-0.001,0.501,0.501,-0.001,-0.001,       153P    167
0.901,0.901,1.,1.,1.,1.,44.9299466745255,-0.0100000000000006,        153P    168
5.01,44.9299466745255,5.01,5.01,44.9299466745255,                    153P    169
-0.0100000000000006,-4.01,44.9299466745255,5.01,-4.01,-0.001,        153P    170
0.501,-0.001,0.901;                                                  153P    171
128,1,1,1,1,0,0,1,0,0,-0.001,-0.001,1.001,1.001,-0.001,-0.001,       155P    172
0.901,0.901,1.,1.,1.,1.,47.9299466745255,5.01,5.01,                  155P    173
47.9299466745255,-5.01,5.01,47.9299466745255,5.01,-4.01,             155P    174
47.9299466745255,-5.01,-4.01,-0.001,1.001,-0.001,0.901;              155P    175
128,1,1,1,1,0,0,1,0,0,-0.301000000000003,-0.301000000000003,         157P    176
5.901,5.901,-0.401,-0.401,0.501,0.501,1.,1.,1.,1.,                   157P    177
-9.0700533254745,57.01,-4.01,-9.0700533254745,-5.01,-4.01,           157P    178
-9.0700533254745,57.01,5.01,-9.0700533254745,-5.01,5.01,             157P    179
-0.301000000000003,5.901,-0.401,0.501;                               157P    180
128,1,1,1,1,0,0,1,0,0,-0.001,-0.001,7.63775323681471,                159P    181
7.63775323681471,-0.001,-0.001,0.501,0.501,1.,1.,1.,1.,              159P    182
44.9370177423374,-0.00707106781186547,-0.01,-9.07712439328638,       159P    183
54.0070710678119,-0.01,44.9370177423374,-0.00707106781186547,        159P    184
5.01,-9.07712439328638,54.0070710678119,5.01,-0.001,                 159P    185
7.63775323681471,-0.001,0.501;                                       159P    186
502,24,35.,0.,5.,35.,0.,-4.,35.,-5.,-4.,35.,-5.,5.,                  161P    187
47.9299466745255,-5.,5.,47.9299466745255,-5.,-4.,0.,-5.,-4.,0.,      161P    188
-5.,5.,-9.0700533254745,-5.,5.,-9.0700533254745,-5.,-4.,0.,35.,      161P    189
5.,0.,35.,-4.,47.9299466745255,5.,5.,44.9299466745255,5.,5.,         161P    190
44.9299466745255,0.,5.,-9.0700533254745,54.,5.,44.9299466745255,     161P    191
0.,0.,-9.0700533254745,54.,0.,44.9299466745255,3.,0.,                161P    192
-9.0700533254745,57.,0.,44.9299466745255,3.,-4.,                     161P    193
-9.0700533254745,57.,-4.,44.9299466745255,5.,-4.,                    161P    194
47.9299466745255,5.,-4.;                                             161P    195
504,36,61,161,1,161,2,63,161,2,161,3,65,161,4,161,3,67,161,1,        163P    196
161,4,69,161,5,161,4,71,161,3,161,6,73,161,6,161,5,75,161,7,161,     163P    197
8,77,161,8,161,9,79,161,9,161,10,81,161,10,161,7,83,161,11,161,      163P    198
8,85,161,12,161,7,87,161,12,161,11,89,161,11,161,1,91,161,2,161,     163P    199
12,93,161,5,161,13,95,161,13,161,14,97,161,14,161,15,99,161,15,      163P    200
161,16,101,161,16,161,9,103,161,17,161,18,105,161,19,161,17,107,     163P    201
161,20,161,19,109,161,18,161,20,111,161,21,161,19,113,161,22,        163P    202
161,21,115,161,20,161,22,117,161,22,161,10,119,161,21,161,23,        163P    203
121,161,23,161,24,123,161,24,161,6,125,161,13,161,24,127,161,14,     163P    204
161,23,129,161,17,161,15,131,161,18,161,16;                          163P    205
406,1,8HSólido1;                                                    165P    206
314,78.0392156862745,56.078431372549,10.9803921568627,;              167P    207
S      1G      3D    168P    207                                        T      1
