                                                                        S      1
,,,13HMirrorSupport,22HAutodesk Inventor 2022,7Hunknown,32,38,7,99,15,, G      1
1.,2,2HMM,1,0.08,15H20220601.182342,0.01,10000.,5Hmabel,,11,0,15H2022032G      2
6.000000;                                                               G      3
     186       1                                                00000000D      1
     186            -143       1       0                               0D      2
     514       2                                                00010000D      3
     514                       1       1                               0D      4
     510       3                                                00010000D      5
     510            -143       1       1                               0D      6
     510       4                                                00010000D      7
     510            -143       1       1                               0D      8
     510       5                                                00010000D      9
     510            -143       1       1                               0D     10
     510       6                                                00010000D     11
     510            -143       1       1                               0D     12
     510       7                                                00010000D     13
     510            -143       1       1                               0D     14
     510       8                                                00010000D     15
     510            -143       1       1                               0D     16
     510       9                                                00010000D     17
     510            -143       1       1                               0D     18
     510      10                                                00010000D     19
     510            -143       1       1                               0D     20
     510      11                                                00010000D     21
     510            -143       1       1                               0D     22
     510      12                                                00010000D     23
     510            -143       1       1                               0D     24
     510      13                                                00010000D     25
     510            -143       1       1                               0D     26
     510      14                                                00010000D     27
     510            -143       1       1                               0D     28
     508      15                                                00010000D     29
     508                       1       1                               0D     30
     508      16                                                00010000D     31
     508                       1       1                               0D     32
     508      17                                                00010000D     33
     508                       1       1                               0D     34
     508      18                                                00010000D     35
     508                       1       1                               0D     36
     508      19                                                00010000D     37
     508                       1       1                               0D     38
     508      20                                                00010000D     39
     508                       2       1                               0D     40
     508      22                                                00010000D     41
     508                       2       1                               0D     42
     508      24                                                00010000D     43
     508                       2       1                               0D     44
     508      26                                                00010000D     45
     508                       1       1                               0D     46
     508      27                                                00010000D     47
     508                       2       1                               0D     48
     508      29                                                00010000D     49
     508                       1       1                               0D     50
     508      30                                                00010000D     51
     508                       1       1                               0D     52
     126      31                                                00010000D     53
     126       0               2       0                               0D     54
     126      33                                                00010000D     55
     126       0               2       0                               0D     56
     126      35                                                00010000D     57
     126       0               2       0                               0D     58
     126      37                                                00010000D     59
     126       0               2       0                               0D     60
     126      39                                                00010000D     61
     126       0               2       0                               0D     62
     126      41                                                00010000D     63
     126       0               2       0                               0D     64
     126      43                                                00010000D     65
     126       0               2       0                               0D     66
     126      45                                                00010000D     67
     126       0               2       0                               0D     68
     126      47                                                00010000D     69
     126       0               4       0                               0D     70
     126      51                                                00010000D     71
     126       0               3       0                               0D     72
     126      54                                                00010000D     73
     126       0               3       0                               0D     74
     126      57                                                00010000D     75
     126       0               4       0                               0D     76
     126      61                                                00010000D     77
     126       0               3       0                               0D     78
     126      64                                                00010000D     79
     126       0               3       0                               0D     80
     126      67                                                00010000D     81
     126       0               4       0                               0D     82
     126      71                                                00010000D     83
     126       0               3       0                               0D     84
     126      74                                                00010000D     85
     126       0               2       0                               0D     86
     126      76                                                00010000D     87
     126       0               2       0                               0D     88
     126      78                                                00010000D     89
     126       0               2       0                               0D     90
     126      80                                                00010000D     91
     126       0               2       0                               0D     92
     126      82                                                00010000D     93
     126       0               2       0                               0D     94
     126      84                                                00010000D     95
     126       0               2       0                               0D     96
     126      86                                                00010000D     97
     126       0               2       0                               0D     98
     126      88                                                00010000D     99
     126       0               2       0                               0D    100
     126      90                                                00010000D    101
     126       0               2       0                               0D    102
     126      92                                                00010000D    103
     126       0               2       0                               0D    104
     126      94                                                00010000D    105
     126       0               2       0                               0D    106
     126      96                                                00010000D    107
     126       0               2       0                               0D    108
     126      98                                                00010000D    109
     126       0               2       0                               0D    110
     126     100                                                00010000D    111
     126       0               2       0                               0D    112
     128     102                                                00010000D    113
     128       0    -143       6       0                               0D    114
     128     108                                                00010000D    115
     128       0    -143       6       0                               0D    116
     128     114                                                00010000D    117
     128       0    -143       6       0                               0D    118
     128     120                                                00010000D    119
     128       0    -143       6       0                               0D    120
     128     126                                                00010000D    121
     128       0    -143       7       0                               0D    122
     128     133                                                00010000D    123
     128       0    -143       3       0                               0D    124
     128     136                                                00010000D    125
     128       0    -143       4       0                               0D    126
     128     140                                                00010000D    127
     128       0    -143       4       0                               0D    128
     128     144                                                00010000D    129
     128       0    -143       3       0                               0D    130
     128     147                                                00010000D    131
     128       0    -143       3       0                               0D    132
     128     150                                                00010000D    133
     128       0    -143       3       0                               0D    134
     128     153                                                00010000D    135
     128       0    -143       3       0                               0D    136
     502     156                                                00010000D    137
     502                       6       1                               0D    138
     504     162                                                00010001D    139
     504                       8       1                               0D    140
     406     170                                                00000000D    141
     406                       1      15                               0D    142
     314     171                                                00000200D    143
     314                       1       0                               0D    144
186,3,1,0,0,1,141;                                                     1P      1
514,12,5,1,7,1,9,1,11,1,13,1,15,1,17,1,19,1,21,1,23,1,25,1,27,1;       3P      2
510,113,1,1,29;                                                        5P      3
510,115,1,1,31;                                                        7P      4
510,117,1,1,33;                                                        9P      5
510,119,1,1,35;                                                       11P      6
510,121,1,1,37;                                                       13P      7
510,123,1,1,39;                                                       15P      8
510,125,1,1,41;                                                       17P      9
510,127,1,1,43;                                                       19P     10
510,129,1,1,45;                                                       21P     11
510,131,1,1,47;                                                       23P     12
510,133,1,1,49;                                                       25P     13
510,135,1,1,51;                                                       27P     14
508,4,0,139,1,1,0,0,139,2,1,0,0,139,3,1,0,0,139,4,0,0;                29P     15
508,4,0,139,5,0,0,0,139,6,0,0,0,139,7,0,0,0,139,8,0,0;                31P     16
508,4,0,139,9,0,0,0,139,3,0,0,0,139,10,0,0,0,139,11,0,0;              33P     17
508,4,0,139,12,0,0,0,139,11,1,0,0,139,13,0,0,0,139,14,0,0;            35P     18
508,4,0,139,15,0,0,0,139,14,1,0,0,139,16,1,0,0,139,7,1,0;             37P     19
508,8,0,139,17,1,0,0,139,8,1,0,0,139,16,0,0,0,139,13,1,0,0,139,       39P     20
10,1,0,0,139,2,0,0,0,139,18,1,0,0,139,19,1,0;                         39P     21
508,8,0,139,4,1,0,0,139,9,1,0,0,139,12,1,0,0,139,15,1,0,0,139,6,      41P     22
1,0,0,139,20,1,0,0,139,21,1,0,0,139,22,1,0;                           41P     23
508,6,0,139,23,1,0,0,139,24,1,0,0,139,18,0,0,0,139,1,0,0,0,139,       43P     24
22,0,0,0,139,25,0,0;                                                  43P     25
508,4,0,139,26,1,0,0,139,25,1,0,0,139,21,0,0,0,139,27,0,0;            45P     26
508,6,0,139,28,1,0,0,139,27,1,0,0,139,20,0,0,0,139,5,1,0,0,139,       47P     27
17,0,0,0,139,29,0,0;                                                  47P     28
508,4,0,139,30,1,0,0,139,29,1,0,0,139,19,0,0,0,139,24,0,0;            49P     29
508,4,0,139,30,0,0,0,139,23,0,0,0,139,26,0,0,0,139,28,0,0;            51P     30
126,1,1,0,0,1,0,0.,0.,0.282842712474619,0.282842712474619,1.,1.,      53P     31
-10.,2.,-25.,-8.,4.,-25.,0.,0.282842712474619,0.,0.,0.;               53P     32
126,1,1,0,0,1,0,0.,0.,0.2,0.2,1.,1.,-8.,4.,-25.,-8.,4.,-23.,0.,       55P     33
0.2,0.,0.,0.;                                                         55P     34
126,1,1,0,0,1,0,-0.282842712474619,-0.282842712474619,0.,0.,1.,       57P     35
1.,-8.,4.,-23.,-10.,2.,-23.,-0.282842712474619,0.,0.,0.,0.;           57P     36
126,1,1,0,0,1,0,-1.35,-1.35,-1.15,-1.15,1.,1.,-10.,2.,-25.,-10.,      59P     37
2.,-23.,-1.35,-1.15,0.,0.,0.;                                         59P     38
126,1,1,0,0,1,0,0.,0.,0.282842712474619,0.282842712474619,1.,1.,      61P     39
-10.,2.,25.,-8.,4.,25.,0.,0.282842712474619,0.,0.,0.;                 61P     40
126,1,1,0,0,1,0,1.05,1.05,1.25,1.25,1.,1.,-10.,2.,23.,-10.,2.,        63P     41
25.,1.05,1.25,0.,0.,0.;                                               63P     42
126,1,1,0,0,1,0,-0.282842712474619,-0.282842712474619,0.,0.,1.,       65P     43
1.,-8.,4.,23.,-10.,2.,23.,-0.282842712474619,0.,0.,0.,0.;             65P     44
126,1,1,0,0,1,0,0.,0.,0.2,0.2,1.,1.,-8.,4.,25.,-8.,4.,23.,0.,         67P     45
0.2,0.,0.,0.;                                                         67P     46
126,1,1,0,0,1,0,-0.800000000000811,-0.800000000000811,                69P     47
1.8000000000021,1.8000000000021,1.,1.,-10.,2.,-23.,                   69P     48
-36.0000000000291,2.,-23.0000000000146,-0.800000000000811,            69P     49
1.8000000000021,0.,0.,0.;                                             69P     50
126,1,1,0,0,1,0,0.,0.,2.80000000000291,2.80000000000291,1.,1.,        71P     51
-36.0000000000291,4.,-23.0000000000146,-8.,4.,-22.9999999999989,      71P     52
0.,2.80000000000291,0.,0.,0.;                                         71P     53
126,1,1,0,0,1,0,0.,0.,0.2,0.2,1.,1.,-36.0000000000291,2.,             73P     54
-23.0000000000146,-36.0000000000291,4.,-23.0000000000146,0.,0.2,      73P     55
0.,0.,0.;                                                             73P     56
126,1,1,0,0,1,0,-3.45000000000218,-3.45000000000218,                  75P     57
1.15000000000073,1.15000000000073,1.,1.,-36.0000000000291,2.,         75P     58
-23.0000000000145,-36.0000000000291,2.,23.0000000000146,              75P     59
-3.45000000000218,1.15000000000073,0.,0.,0.;                          75P     60
126,1,1,0,0,1,0,0.,0.,4.60000000000291,4.60000000000291,1.,1.,        77P     61
-36.0000000000291,4.,23.0000000000146,-36.0000000000291,4.,           77P     62
-23.0000000000146,0.,4.60000000000291,0.,0.,0.;                       77P     63
126,1,1,0,0,1,0,0.,0.,0.2,0.2,1.,1.,-36.0000000000291,2.,             79P     64
23.0000000000146,-36.0000000000291,4.,23.0000000000146,0.,0.2,        79P     65
0.,0.,0.;                                                             79P     66
126,1,1,0,0,1,0,-3.10000000000355,-3.10000000000355,                  81P     67
-0.500000000000644,-0.500000000000644,1.,1.,-36.0000000000291,        81P     68
2.,23.0000000000146,-10.,2.,23.,-3.10000000000355,                    81P     69
-0.500000000000644,0.,0.,0.;                                          81P     70
126,1,1,0,0,1,0,-2.80000000000291,-2.80000000000291,0.,0.,1.,1.,      83P     71
-36.0000000000291,4.00000000000001,23.,-8.,4.,23.,                    83P     72
-2.80000000000291,0.,0.,0.,0.;                                        83P     73
126,1,1,0,0,1,0,0.,0.,3.,3.,1.,1.,-38.,4.,25.,-8.,4.,25.,0.,3.,       85P     74
0.,0.,0.;                                                             85P     75
126,1,1,0,0,1,0,0.,0.,3.,3.,1.,1.,-8.,4.,-25.,-38.,                   87P     76
4.00000000000001,-25.,0.,3.,0.,0.,0.;                                 87P     77
126,1,1,0,0,1,0,0.,0.,5.,5.,1.,1.,-38.,4.,-25.,-38.,4.,25.,0.,        89P     78
5.,0.,0.,0.;                                                          89P     79
126,1,1,0,0,1,0,2.8,2.8,7.6,7.6,1.,1.,-10.,2.,25.,38.,2.,25.,         91P     80
2.8,7.6,0.,0.,0.;                                                     91P     81
126,1,1,0,0,1,0,0.,0.,5.,5.,1.,1.,38.,2.,25.,38.,2.,-25.,0.,5.,       93P     82
0.,0.,0.;                                                             93P     83
126,1,1,0,0,1,0,0.,0.,4.8,4.8,1.,1.,38.,2.,-25.,-10.,2.,-25.,0.,      95P     84
4.8,0.,0.,0.;                                                         95P     85
126,1,1,0,0,1,0,0.,0.,7.6,7.6,1.,1.,38.,0.,-25.,-38.,0.,-25.,0.,      97P     86
7.6,0.,0.,0.;                                                         97P     87
126,1,1,0,0,1,0,0.,0.,0.4,0.4,1.,1.,-38.,0.,-25.,-38.,4.,-25.,        99P     88
0.,0.4,0.,0.,0.;                                                      99P     89
126,1,1,0,0,1,0,0.,0.,0.2,0.2,1.,1.,38.,0.,-25.,38.,2.,-25.,0.,      101P     90
0.2,0.,0.,0.;                                                        101P     91
126,1,1,0,0,1,0,0.,0.,5.,5.,1.,1.,38.,0.,25.,38.,0.,-25.,0.,5.,      103P     92
0.,0.,0.;                                                            103P     93
126,1,1,0,0,1,0,0.,0.,0.2,0.2,1.,1.,38.,0.,25.,38.,2.,25.,0.,        105P     94
0.2,0.,0.,0.;                                                        105P     95
126,1,1,0,0,1,0,0.,0.,7.6,7.6,1.,1.,-38.,0.,25.,38.,0.,25.,0.,       107P     96
7.6,0.,0.,0.;                                                        107P     97
126,1,1,0,0,1,0,0.,0.,0.4,0.4,1.,1.,-38.,0.,25.,-38.,4.,25.,0.,      109P     98
0.4,0.,0.,0.;                                                        109P     99
126,1,1,0,0,1,0,0.,0.,5.,5.,1.,1.,-38.,0.,-25.,-38.,0.,25.,0.,       111P    100
5.,0.,0.,0.;                                                         111P    101
128,1,1,1,1,0,0,1,0,0,-0.001,-0.001,0.283842712474619,               113P    102
0.283842712474619,-0.001,-0.001,0.201,0.201,1.,1.,1.,1.,             113P    103
-10.0070710678119,1.99292893218813,-25.01,-7.99292893218814,         113P    104
4.00707106781187,-25.01,-10.0070710678119,1.99292893218813,          113P    105
-22.99,-7.99292893218814,4.00707106781187,-22.99,-0.001,             113P    106
0.283842712474619,-0.001,0.201;                                      113P    107
128,1,1,1,1,0,0,1,0,0,-0.001,-0.001,0.283842712474619,               115P    108
0.283842712474619,-0.001,-0.001,0.201,0.201,1.,1.,1.,1.,             115P    109
-7.99292893218814,4.00707106781187,25.01,-10.0070710678119,          115P    110
1.99292893218813,25.01,-7.99292893218814,4.00707106781187,22.99,     115P    111
-10.0070710678119,1.99292893218813,22.99,-0.001,                     115P    112
0.283842712474619,-0.001,0.201;                                      115P    113
128,1,1,1,1,0,0,1,0,0,-0.001,-0.001,2.80100000000291,                117P    114
2.80100000000291,-0.001,-0.001,0.201,0.201,1.,1.,1.,1.,              117P    115
-36.0100000000291,1.99,-23.0000000000146,-7.99,1.99,                 117P    116
-22.9999999999989,-36.0100000000291,4.01,-23.0000000000146,          117P    117
-7.99,4.01,-22.9999999999989,-0.001,2.80100000000291,-0.001,         117P    118
0.201;                                                               117P    119
128,1,1,1,1,0,0,1,0,0,-0.001,-0.001,4.60100000000291,                119P    120
4.60100000000291,-0.001,-0.001,0.201,0.201,1.,1.,1.,1.,              119P    121
-36.0000000000291,1.99,23.0100000000145,-36.0000000000291,1.99,      119P    122
-23.0100000000146,-36.0000000000291,4.01,23.0100000000145,           119P    123
-36.0000000000291,4.01,-23.0100000000146,-0.001,                     119P    124
4.60100000000291,-0.001,0.201;                                       119P    125
128,1,1,1,1,0,0,1,0,0,-0.201,-0.201,2.60100000000291,                121P    126
2.60100000000291,-0.001,-0.001,0.201000000000001,                    121P    127
0.201000000000001,1.,1.,1.,1.,-7.99,1.99,22.9999999999989,           121P    128
-36.0100000000291,1.99,23.0000000000146,-7.99,4.01000000000001,      121P    129
22.9999999999989,-36.0100000000291,4.01000000000001,                 121P    130
23.0000000000146,-0.201,2.60100000000291,-0.001,                     121P    131
0.201000000000001;                                                   121P    132
128,1,1,1,1,0,0,1,0,0,-2.501,-2.501,2.501,2.501,-1.401,-1.401,       123P    133
1.601,1.601,1.,1.,1.,1.,-38.01,4.,-25.01,-38.01,4.,25.01,-7.99,      123P    134
4.,-25.01,-7.99,4.,25.01,-2.501,2.501,-1.401,1.601;                  123P    135
128,1,1,1,1,0,0,1,0,0,-2.501,-2.501,2.501,2.501,                     125P    136
-3.60100000000291,-3.60100000000291,3.801,3.801,1.,1.,1.,1.,         125P    137
-36.0100000000291,2.,-25.01,-36.0100000000291,2.,25.01,38.01,2.,     125P    138
-25.01,38.01,2.,25.01,-2.501,2.501,-3.60100000000291,3.801;          125P    139
128,1,1,1,1,0,0,1,0,0,-0.001,-0.001,7.601,7.601,-0.001,-0.001,       127P    140
0.401000000000001,0.401000000000001,1.,1.,1.,1.,38.01,-0.01,         127P    141
-25.,-38.01,-0.01,-25.,38.01,4.01000000000001,-25.,-38.01,           127P    142
4.01000000000001,-25.,-0.001,7.601,-0.001,0.401000000000001;         127P    143
128,1,1,1,1,0,0,1,0,0,-0.001,-0.001,5.001,5.001,-0.001,-0.001,       129P    144
0.201,0.201,1.,1.,1.,1.,38.,-0.01,25.01,38.,-0.01,-25.01,38.,        129P    145
2.01,25.01,38.,2.01,-25.01,-0.001,5.001,-0.001,0.201;                129P    146
128,1,1,1,1,0,0,1,0,0,-0.001,-0.001,7.601,7.601,-0.001,-0.001,       131P    147
0.401,0.401,1.,1.,1.,1.,-38.01,-0.01,25.,38.01,-0.01,25.,-38.01,     131P    148
4.01,25.,38.01,4.01,25.,-0.001,7.601,-0.001,0.401;                   131P    149
128,1,1,1,1,0,0,1,0,0,-0.001,-0.001,5.001,5.001,-0.001,-0.001,       133P    150
0.401,0.401,1.,1.,1.,1.,-38.,-0.01,-25.01,-38.,-0.01,25.01,-38.,     133P    151
4.01,-25.01,-38.,4.01,25.01,-0.001,5.001,-0.001,0.401;               133P    152
128,1,1,1,1,0,0,1,0,0,-2.501,-2.501,2.501,2.501,-3.801,-3.801,       135P    153
3.801,3.801,1.,1.,1.,1.,-38.01,0.,25.01,-38.01,0.,-25.01,38.01,      135P    154
0.,25.01,38.01,0.,-25.01,-2.501,2.501,-3.801,3.801;                  135P    155
502,20,-10.,2.,-25.,-8.,4.,-25.,-8.,4.,-23.,-10.,2.,-23.,-10.,       137P    156
2.,25.,-8.,4.,25.,-10.,2.,23.,-8.,4.,23.,-36.0000000000291,2.,       137P    157
-23.0000000000146,-36.0000000000291,4.,-23.0000000000146,            137P    158
-36.0000000000291,2.,23.0000000000146,-36.0000000000291,4.,          137P    159
23.0000000000146,-38.,4.,25.,-38.,4.,-25.,38.,2.,25.,38.,2.,         137P    160
-25.,38.,0.,-25.,-38.,0.,-25.,38.,0.,25.,-38.,0.,25.;                137P    161
504,30,53,137,1,137,2,55,137,2,137,3,57,137,3,137,4,59,137,1,        139P    162
137,4,61,137,5,137,6,63,137,7,137,5,65,137,8,137,7,67,137,6,137,     139P    163
8,69,137,4,137,9,71,137,10,137,3,73,137,9,137,10,75,137,9,137,       139P    164
11,77,137,12,137,10,79,137,11,137,12,81,137,11,137,7,83,137,12,      139P    165
137,8,85,137,13,137,6,87,137,2,137,14,89,137,14,137,13,91,137,5,     139P    166
137,15,93,137,15,137,16,95,137,16,137,1,97,137,17,137,18,99,137,     139P    167
18,137,14,101,137,17,137,16,103,137,19,137,17,105,137,19,137,15,     139P    168
107,137,20,137,19,109,137,20,137,13,111,137,18,137,20;               139P    169
406,1,8HSólido1;                                                    141P    170
314,74.9019607843137,74.9019607843137,74.9019607843137,;             143P    171
S      1G      3D    144P    171                                        T      1
