                                                                        S      1
,,,13HSensorSupport,22HAutodesk Inventor 2022,7Hunknown,32,38,7,99,15,, G      1
1.,2,2HMM,1,0.08,15H20220601.182350,0.01,10000.,5Hmabel,,11,0,15H2022052G      2
9.000000;                                                               G      3
     186       1                                                00000000D      1
     186            -115       1       0                               0D      2
     514       2                                                00010000D      3
     514                       1       1                               0D      4
     510       3                                                00010000D      5
     510            -115       1       1                               0D      6
     510       4                                                00010000D      7
     510            -117       1       1                               0D      8
     510       5                                                00010000D      9
     510            -117       1       1                               0D     10
     510       6                                                00010000D     11
     510            -115       1       1                               0D     12
     510       7                                                00010000D     13
     510            -115       1       1                               0D     14
     510       8                                                00010000D     15
     510            -115       1       1                               0D     16
     510       9                                                00010000D     17
     510            -115       1       1                               0D     18
     510      10                                                00010000D     19
     510            -115       1       1                               0D     20
     510      11                                                00010000D     21
     510            -115       1       1                               0D     22
     510      12                                                00010000D     23
     510            -115       1       1                               0D     24
     508      13                                                00010000D     25
     508                       1       1                               0D     26
     508      14                                                00010000D     27
     508                       2       1                               0D     28
     508      16                                                00010000D     29
     508                       1       1                               0D     30
     508      17                                                00010000D     31
     508                       1       1                               0D     32
     508      18                                                00010000D     33
     508                       1       1                               0D     34
     508      19                                                00010000D     35
     508                       1       1                               0D     36
     508      20                                                00010000D     37
     508                       1       1                               0D     38
     508      21                                                00010000D     39
     508                       1       1                               0D     40
     508      22                                                00010000D     41
     508                       1       1                               0D     42
     508      23                                                00010000D     43
     508                       1       1                               0D     44
     508      24                                                00010000D     45
     508                       1       1                               0D     46
     508      25                                                00010000D     47
     508                       1       1                               0D     48
     126      26                                                00010000D     49
     126       0               9       0                               0D     50
     126      35                                                00010000D     51
     126       0               5       0                               0D     52
     126      40                                                00010000D     53
     126       0               6       0                               0D     54
     126      46                                                00010000D     55
     126       0               2       0                               0D     56
     126      48                                                00010000D     57
     126       0               5       0                               0D     58
     126      53                                                00010000D     59
     126       0               6       0                               0D     60
     126      59                                                00010000D     61
     126       0               2       0                               0D     62
     126      61                                                00010000D     63
     126       0               9       0                               0D     64
     126      70                                                00010000D     65
     126       0               2       0                               0D     66
     126      72                                                00010000D     67
     126       0               2       0                               0D     68
     126      74                                                00010000D     69
     126       0               2       0                               0D     70
     126      76                                                00010000D     71
     126       0               2       0                               0D     72
     126      78                                                00010000D     73
     126       0               2       0                               0D     74
     126      80                                                00010000D     75
     126       0               2       0                               0D     76
     126      82                                                00010000D     77
     126       0               2       0                               0D     78
     126      84                                                00010000D     79
     126       0               2       0                               0D     80
     126      86                                                00010000D     81
     126       0               2       0                               0D     82
     126      88                                                00010000D     83
     126       0               2       0                               0D     84
     126      90                                                00010000D     85
     126       0               2       0                               0D     86
     126      92                                                00010000D     87
     126       0               2       0                               0D     88
     128      94                                                00010000D     89
     128       0    -115       3       0                               0D     90
     128      97                                                00010000D     91
     128       0    -117      11       0                               0D     92
     128     108                                                00010000D     93
     128       0    -117       3       0                               0D     94
     128     111                                                00010000D     95
     128       0    -115      12       0                               0D     96
     128     123                                                00010000D     97
     128       0    -115       3       0                               0D     98
     128     126                                                00010000D     99
     128       0    -115       3       0                               0D    100
     128     129                                                00010000D    101
     128       0    -115       4       0                               0D    102
     128     133                                                00010000D    103
     128       0    -115       3       0                               0D    104
     128     136                                                00010000D    105
     128       0    -115       3       0                               0D    106
     128     139                                                00010000D    107
     128       0    -115       3       0                               0D    108
     502     142                                                00010000D    109
     502                       4       1                               0D    110
     504     146                                                00010001D    111
     504                       6       1                               0D    112
     406     152                                                00000000D    113
     406                       1      15                               0D    114
     314     153                                                00000200D    115
     314                       1       0                               0D    116
     314     154                                                00000200D    117
     314                       1       0                               0D    118
186,3,1,0,0,1,113;                                                     1P      1
514,10,5,1,7,1,9,1,11,1,13,1,15,1,17,1,19,1,21,1,23,1;                 3P      2
510,89,1,1,25;                                                         5P      3
510,91,1,1,27;                                                         7P      4
510,93,1,1,29;                                                         9P      5
510,95,1,1,31;                                                        11P      6
510,97,1,1,33;                                                        13P      7
510,99,1,1,35;                                                        15P      8
510,101,1,1,37;                                                       17P      9
510,103,1,1,39;                                                       19P     10
510,105,2,1,41,43;                                                    21P     11
510,107,2,1,45,47;                                                    23P     12
508,1,0,111,1,1,0;                                                    25P     13
508,6,0,111,2,0,0,0,111,3,0,0,0,111,4,1,0,0,111,5,0,0,0,111,6,0,      27P     14
0,0,111,4,0,0;                                                        27P     15
508,2,0,111,2,1,0,0,111,3,1,0;                                        29P     16
508,4,0,111,1,0,0,0,111,7,1,0,0,111,8,1,0,0,111,7,0,0;                31P     17
508,4,0,111,9,1,0,0,111,10,1,0,0,111,11,0,0,0,111,12,0,0;             33P     18
508,4,0,111,13,1,0,0,111,12,1,0,0,111,14,0,0,0,111,15,0,0;            35P     19
508,4,0,111,16,1,0,0,111,15,1,0,0,111,17,0,0,0,111,18,0,0;            37P     20
508,4,0,111,19,1,0,0,111,18,1,0,0,111,20,0,0,0,111,10,0,0;            39P     21
508,4,0,111,20,1,0,0,111,17,1,0,0,111,14,1,0,0,111,11,1,0;            41P     22
508,2,0,111,5,1,0,0,111,6,1,0;                                        43P     23
508,4,0,111,19,0,0,0,111,9,0,0,0,111,13,0,0,0,111,16,0,0;             45P     24
508,1,0,111,8,0,0;                                                    47P     25
126,8,2,0,1,0,0,-3.14159265358979,-3.14159265358979,                  49P     26
-3.14159265358979,-1.5707963267949,-1.5707963267949,0.,0.,            49P     27
1.5707963267949,1.5707963267949,3.14159265358979,                     49P     28
3.14159265358979,3.14159265358979,1.,0.707106781186547,1.,            49P     29
0.707106781186547,1.,0.707106781186547,1.,0.707106781186547,1.,       49P     30
1.75,8.,5.,1.75,6.25,5.,-1.07156594925393D-16,6.25,5.,-1.75,          49P     31
6.25,5.,-1.75,8.,5.,-1.75,9.75,5.,-1.07156594925393D-16,9.75,5.,      49P     32
1.75,9.75,5.,1.75,8.,5.,-3.14159265358979,3.14159265358979,0.,        49P     33
0.,0.;                                                                49P     34
126,4,2,0,0,0,0,0.,0.,0.,1.5707963267949,1.5707963267949,             51P     35
3.14159265358979,3.14159265358979,3.14159265358979,1.,                51P     36
0.707106781186549,1.,0.707106781186549,1.,2.,8.,7.,2.,10.,7.,         51P     37
1.22464679914735D-16,10.,7.,-2.,10.,7.,-2.,8.,7.,0.,                  51P     38
3.14159265358979,0.,0.,0.;                                            51P     39
126,4,2,0,0,0,0,3.14159265358979,3.14159265358979,                    53P     40
3.14159265358979,4.71238898038469,4.71238898038469,                   53P     41
6.28318530717959,6.28318530717959,6.28318530717959,1.,                53P     42
0.707106781186547,1.,0.707106781186549,1.,-2.,8.,7.,-2.,6.,7.,        53P     43
-3.67394039744206D-16,6.,7.,2.,6.,7.,2.,8.,7.,3.14159265358979,       53P     44
6.28318530717959,0.,0.,0.;                                            53P     45
126,1,1,0,0,1,0,-1.,-1.,0.,0.,1.,1.,-2.,8.,7.,-2.,8.,5.,-1.,0.,       55P     46
0.,0.,0.;                                                             55P     47
126,4,2,0,0,0,0,0.,0.,0.,1.5707963267949,1.5707963267949,             57P     48
3.14159265358979,3.14159265358979,3.14159265358979,1.,                57P     49
0.707106781186549,1.,0.707106781186549,1.,2.,8.,5.,2.,6.,5.,          57P     50
1.22464679914735D-16,6.,5.,-2.,6.,5.,-2.,8.,5.,0.,                    57P     51
3.14159265358979,0.,0.,0.;                                            57P     52
126,4,2,0,0,0,0,3.14159265358979,3.14159265358979,                    59P     53
3.14159265358979,4.71238898038469,4.71238898038469,                   59P     54
6.28318530717959,6.28318530717959,6.28318530717959,1.,                59P     55
0.707106781186547,1.,0.707106781186549,1.,-2.,8.,5.,-2.,10.,5.,       59P     56
-3.67394039744206D-16,10.,5.,2.,10.,5.,2.,8.,5.,                      59P     57
3.14159265358979,6.28318530717959,0.,0.,0.;                           59P     58
126,1,1,0,0,1,0,-2.85714285714286,-2.85714285714286,0.,0.,1.,1.,      61P     59
1.75,8.,5.,1.75,8.,0.,-2.85714285714286,0.,0.,0.,0.;                  61P     60
126,8,2,0,1,0,0,-3.14159265358979,-3.14159265358979,                  63P     61
-3.14159265358979,-1.5707963267949,-1.5707963267949,0.,0.,            63P     62
1.5707963267949,1.5707963267949,3.14159265358979,                     63P     63
3.14159265358979,3.14159265358979,1.,0.707106781186547,1.,            63P     64
0.707106781186547,1.,0.707106781186547,1.,0.707106781186547,1.,       63P     65
1.75,8.,0.,1.75,6.25,0.,-1.07156594925393D-16,6.25,0.,-1.75,          63P     66
6.25,0.,-1.75,8.,0.,-1.75,9.75,0.,-1.07156594925393D-16,9.75,0.,      63P     67
1.75,9.75,0.,1.75,8.,0.,-3.14159265358979,3.14159265358979,0.,        63P     68
0.,0.;                                                                63P     69
126,1,1,0,0,1,0,0.,0.,3.5,3.5,1.,1.,21.572,-17.5,0.,21.572,17.5,      65P     70
0.,0.,3.5,0.,0.,0.;                                                   65P     71
126,1,1,0,0,1,0,0.,0.,0.5,0.5,1.,1.,21.572,17.5,0.,21.572,17.5,       67P     72
5.,0.,0.5,0.,0.,0.;                                                   67P     73
126,1,1,0,0,1,0,0.,0.,3.5,3.5,1.,1.,21.572,-17.5,5.,21.572,17.5,      69P     74
5.,0.,3.5,0.,0.,0.;                                                   69P     75
126,1,1,0,0,1,0,0.,0.,0.5,0.5,1.,1.,21.572,-17.5,0.,21.572,           71P     76
-17.5,5.,0.,0.5,0.,0.,0.;                                             71P     77
126,1,1,0,0,1,0,0.,0.,4.3144,4.3144,1.,1.,-21.572,-17.5,0.,           73P     78
21.572,-17.5,0.,0.,4.3144,0.,0.,0.;                                   73P     79
126,1,1,0,0,1,0,0.,0.,4.3144,4.3144,1.,1.,-21.572,-17.5,5.,           75P     80
21.572,-17.5,5.,0.,4.3144,0.,0.,0.;                                   75P     81
126,1,1,0,0,1,0,0.,0.,0.5,0.5,1.,1.,-21.572,-17.5,0.,-21.572,         77P     82
-17.5,5.,0.,0.5,0.,0.,0.;                                             77P     83
126,1,1,0,0,1,0,0.,0.,3.5,3.5,1.,1.,-21.572,17.5,0.,-21.572,          79P     84
-17.5,0.,0.,3.5,0.,0.,0.;                                             79P     85
126,1,1,0,0,1,0,0.,0.,3.5,3.5,1.,1.,-21.572,17.5,5.,-21.572,          81P     86
-17.5,5.,0.,3.5,0.,0.,0.;                                             81P     87
126,1,1,0,0,1,0,0.,0.,0.5,0.5,1.,1.,-21.572,17.5,0.,-21.572,          83P     88
17.5,5.,0.,0.5,0.,0.,0.;                                              83P     89
126,1,1,0,0,1,0,0.,0.,4.3144,4.3144,1.,1.,21.572,17.5,0.,             85P     90
-21.572,17.5,0.,0.,4.3144,0.,0.,0.;                                   85P     91
126,1,1,0,0,1,0,0.,0.,4.3144,4.3144,1.,1.,21.572,17.5,5.,             87P     92
-21.572,17.5,5.,0.,4.3144,0.,0.,0.;                                   87P     93
128,1,1,1,1,0,0,1,0,0,-0.176,-0.176,0.176,0.176,-0.176,-0.176,        89P     94
0.176,0.176,1.,1.,1.,1.,1.76,6.24,5.,-1.76,6.24,5.,1.76,9.76,5.,      89P     95
-1.76,9.76,5.,-0.176,0.176,-0.176,0.176;                              89P     96
128,1,8,1,2,0,1,0,0,1,0.,0.,1.,1.,-3.14159265358979,                  91P     97
-3.14159265358979,-3.14159265358979,-1.5707963267949,                 91P     98
-1.5707963267949,0.,0.,1.5707963267949,1.5707963267949,               91P     99
3.14159265358979,3.14159265358979,3.14159265358979,1.,1.,             91P    100
0.707106781186548,0.707106781186548,1.,1.,0.707106781186548,          91P    101
0.707106781186548,1.,1.,0.707106781186548,0.707106781186548,1.,       91P    102
1.,0.707106781186548,0.707106781186548,1.,1.,-2.,8.,7.,-2.,8.,        91P    103
5.,-2.,6.,7.,-2.,6.,5.,0.,6.,7.,0.,6.,5.,2.,6.,7.,2.,6.,5.,2.,        91P    104
8.,7.,2.,8.,5.,2.,10.,7.,2.,10.,5.,0.,10.,7.,0.,10.,5.,-2.,10.,       91P    105
7.,-2.,10.,5.,-2.,8.,7.,-2.,8.,5.,0.,1.,-3.14159265358979,            91P    106
3.14159265358979;                                                     91P    107
128,1,1,1,1,0,0,1,0,0,-0.201,-0.201,0.201,0.201,-0.201,-0.201,        93P    108
0.201,0.201,1.,1.,1.,1.,-2.01,5.99,7.,2.01,5.99,7.,-2.01,10.01,       93P    109
7.,2.01,10.01,7.,-0.201,0.201,-0.201,0.201;                           93P    110
128,1,8,1,2,0,1,0,0,1,0.,0.,2.85714285714286,2.85714285714286,        95P    111
-3.14159265358979,-3.14159265358979,-3.14159265358979,                95P    112
-1.5707963267949,-1.5707963267949,0.,0.,1.5707963267949,              95P    113
1.5707963267949,3.14159265358979,3.14159265358979,                    95P    114
3.14159265358979,1.,1.,0.707106781186548,0.707106781186548,1.,        95P    115
1.,0.707106781186548,0.707106781186548,1.,1.,0.707106781186548,       95P    116
0.707106781186548,1.,1.,0.707106781186548,0.707106781186548,1.,       95P    117
1.,1.75,8.,0.,1.75,8.,5.,1.75,9.75,0.,1.75,9.75,5.,0.,9.75,0.,        95P    118
0.,9.75,5.,-1.75,9.75,0.,-1.75,9.75,5.,-1.75,8.,0.,-1.75,8.,5.,       95P    119
-1.75,6.25,0.,-1.75,6.25,5.,0.,6.25,0.,0.,6.25,5.,1.75,6.25,0.,       95P    120
1.75,6.25,5.,1.75,8.,0.,1.75,8.,5.,0.,2.85714285714286,               95P    121
-3.14159265358979,3.14159265358979;                                   95P    122
128,1,1,1,1,0,0,1,0,0,-0.001,-0.001,3.501,3.501,-0.001,-0.001,        97P    123
0.501,0.501,1.,1.,1.,1.,21.572,-17.51,-0.01,21.572,17.51,-0.01,       97P    124
21.572,-17.51,5.01,21.572,17.51,5.01,-0.001,3.501,-0.001,0.501;       97P    125
128,1,1,1,1,0,0,1,0,0,-0.001,-0.001,4.3154,4.3154,-0.001,-0.001,      99P    126
0.501,0.501,1.,1.,1.,1.,-21.582,-17.5,-0.01,21.582,-17.5,-0.01,       99P    127
-21.582,-17.5,5.01,21.582,-17.5,5.01,-0.001,4.3154,-0.001,0.501;      99P    128
128,1,1,1,1,0,0,1,0,0,-0.001,-0.001,3.501,3.501,-0.001,-0.001,       101P    129
0.501,0.501,1.,1.,1.,1.,-21.572,17.51,-0.01,-21.572,-17.51,          101P    130
-0.01,-21.572,17.51,5.01,-21.572,-17.51,5.01,-0.001,3.501,           101P    131
-0.001,0.501;                                                        101P    132
128,1,1,1,1,0,0,1,0,0,-0.001,-0.001,4.3154,4.3154,-0.001,-0.001,     103P    133
0.501,0.501,1.,1.,1.,1.,21.582,17.5,-0.01,-21.582,17.5,-0.01,        103P    134
21.582,17.5,5.01,-21.582,17.5,5.01,-0.001,4.3154,-0.001,0.501;       103P    135
128,1,1,1,1,0,0,1,0,0,-2.1582,-2.1582,2.1582,2.1582,-1.751,          105P    136
-1.751,1.751,1.751,1.,1.,1.,1.,-21.582,-17.51,5.,21.582,-17.51,      105P    137
5.,-21.582,17.51,5.,21.582,17.51,5.,-2.1582,2.1582,-1.751,1.751;     105P    138
128,1,1,1,1,0,0,1,0,0,-2.1582,-2.1582,2.1582,2.1582,-1.751,          107P    139
-1.751,1.751,1.751,1.,1.,1.,1.,21.582,-17.51,0.,-21.582,-17.51,      107P    140
0.,21.582,17.51,0.,-21.582,17.51,0.,-2.1582,2.1582,-1.751,1.751;     107P    141
502,14,1.75,8.,5.,2.,8.,7.,-2.,8.,7.,-2.,8.,5.,2.,8.,5.,1.75,8.,     109P    142
0.,21.572,-17.5,0.,21.572,17.5,0.,21.572,17.5,5.,21.572,-17.5,       109P    143
5.,-21.572,-17.5,0.,-21.572,-17.5,5.,-21.572,17.5,0.,-21.572,        109P    144
17.5,5.;                                                             109P    145
504,20,49,109,1,109,1,51,109,2,109,3,53,109,3,109,2,55,109,3,        111P    146
109,4,57,109,5,109,4,59,109,4,109,5,61,109,1,109,6,63,109,6,109,     111P    147
6,65,109,7,109,8,67,109,8,109,9,69,109,10,109,9,71,109,7,109,10,     111P    148
73,109,11,109,7,75,109,12,109,10,77,109,11,109,12,79,109,13,109,     111P    149
11,81,109,14,109,12,83,109,13,109,14,85,109,8,109,13,87,109,9,       111P    150
109,14;                                                              111P    151
406,1,8HSólido1;                                                    113P    152
314,78.0392156862745,56.078431372549,10.9803921568627,;              115P    153
314,100.,89.0196078431373,70.9803921568627,;                         117P    154
S      1G      3D    118P    154                                        T      1
